<mxfile host="Electron" agent="Mozilla/5.0 (Macintosh; Intel Mac OS X 10_15_7) AppleWebKit/537.36 (KHTML, like Gecko) draw.io/24.7.17 Chrome/128.0.6613.36 Electron/32.0.1 Safari/537.36" version="24.7.17">
  <diagram name="Page-1" id="JiqYC_-qCOhoXohtq1lg">
    <mxGraphModel dx="464" dy="878" grid="1" gridSize="10" guides="1" tooltips="1" connect="1" arrows="1" fold="1" page="1" pageScale="1" pageWidth="1100" pageHeight="850" math="0" shadow="0">
      <root>
        <mxCell id="0" />
        <mxCell id="1" parent="0" />
        <mxCell id="9ALV2XJM24fpJv_ytaoy-2" value="" style="shape=image;verticalLabelPosition=bottom;labelBackgroundColor=default;verticalAlign=top;aspect=fixed;imageAspect=0;image=data:image/png,iVBORw0KGgoAAAANSUhEUgAAALwAAABoCAYAAABL5pqSAAAMQGlDQ1BJQ0MgUHJvZmlsZQAASImVVwdYU8kWnluSkJDQAghICb0JIlICSAmhBZDebYQkQCgxBoKKHVlUcC2oWMCGrooodpodsbMo9r5YUFDWxYJdeZMCuu4r35vvmzv//efMf86cO/fOHQDUT3DF4hxUA4BcUb4kJtifkZScwiB1AwLQAlTgBdy5vDwxKyoqHMAy2P69vLsBEFl71UGm9c/+/1o0+YI8HgBIFMRp/DxeLsQHAcCreGJJPgBEGW8+NV8sw7ACbQkMEOKFMpyhwFUynKbAe+U2cTFsiFsBUKFyuZIMANQuQ55RwMuAGmp9EDuJ+EIRAOoMiH1ycyfzIU6F2AbaiCGW6TPTftDJ+Jtm2pAml5sxhBVzkReVAGGeOIc7/f9Mx/8uuTnSQR9WsFIzJSExsjnDvN3Knhwmw1SIe0VpEZEQa0H8QciX20OMUjKlIfEKe9SQl8eGOQO6EDvxuQFhEBtCHCTKiQhX8mnpwiAOxHCFoNOE+Zw4iPUgXijIC4xV2mySTI5R+kLr0yVslpI/x5XI/cp8PZBmx7OU+q8zBRylPqZWmBmXCDEFYosCYUIExGoQO+Zlx4YpbcYUZrIjBm0k0hhZ/BYQxwhEwf4KfawgXRIUo7Qvzc0bnC+2KVPIiVDi/fmZcSGK/GCtPK48fjgX7LJAxIof1BHkJYUPzoUvCAhUzB3rFojiY5U6H8T5/jGKsThFnBOltMfNBDnBMt4MYpe8gljlWDwhHy5IhT6eLs6PilPEiRdmcUOjFPHgy0A4YIMAwABSWNPAZJAFhO29Db3wTtETBLhAAjKAADgomcERifIeEbzGgkLwJ0QCkDc0zl/eKwAFkP86xCquDiBd3lsgH5ENnkKcC8JADryXykeJhrwlgCeQEf7DOxdWHow3B1ZZ/7/nB9nvDAsy4UpGOuiRoT5oSQwkBhBDiEFEW9wA98G98HB49YPVGWfiHoPz+G5PeEroIDwiXCd0Em5PEhZJfopyLOiE+kHKXKT9mAvcCmq64v64N1SHyrgubgAccBfoh4X7Qs+ukGUr45ZlhfGT9t9m8MPTUNqRncgoeRjZj2zz80g1OzXXIRVZrn/MjyLWtKF8s4d6fvbP/iH7fNiG/WyJLcQOYGexk9h57AjWABjYcawRa8OOyvDQ6noiX12D3mLk8WRDHeE//A0+WVkm85xqnXqcvij68gXTZN9owJ4sni4RZmTmM1hwRxAwOCKe4wiGs5OzCwCy/UXx+XoTLd83EN2279z8PwDwPj4wMHD4Oxd6HIB97vD1b/rO2TDh1qEKwLkmnlRSoOBw2YUAvxLq8E3TB8bAHNjA+TgDN7iP+YFAEAoiQRxIBhNh9JlwnUvAVDATzAMloAwsA6vAOrARbAE7wG6wHzSAI+AkOAMugsvgOrgLV08XeAH6wDvwGUEQEkJD6Ig+YoJYIvaIM8JEfJBAJByJQZKRVCQDESFSZCYyHylDypF1yGakBtmHNCEnkfNIB3IbeYj0IK+RTyiGUlFt1Ai1QkeiTJSFhqFx6AQ0A52CFqLF6BJ0DVqN7kLr0ZPoRfQ62om+QPsxgKliupgp5oAxMTYWiaVg6ZgEm42VYhVYNVaHNcPnfBXrxHqxjzgRp+MM3AGu4BA8HufhU/DZ+GJ8Hb4Dr8db8av4Q7wP/0agEQwJ9gRPAoeQRMggTCWUECoI2wiHCKfhu9RFeEckEnWJ1kR3+C4mE7OIM4iLieuJe4gniB3Ex8R+EomkT7IneZMiSVxSPqmEtJa0i3ScdIXURfqgoqpiouKsEqSSoiJSKVKpUNmpckzlisozlc9kDbIl2ZMcSeaTp5OXkreSm8mXyF3kzxRNijXFmxJHyaLMo6yh1FFOU+5R3qiqqpqpeqhGqwpV56quUd2rek71oepHqhbVjsqmjqdKqUuo26knqLepb2g0mhXNj5ZCy6ctodXQTtEe0D6o0dUc1ThqfLU5apVq9WpX1F6qk9Ut1VnqE9UL1SvUD6hfUu/VIGtYabA1uBqzNSo1mjRuavRr0jVHaUZq5mou1typeV6zW4ukZaUVqMXXKtbaonVK6zEdo5vT2XQefT59K/00vUubqG2tzdHO0i7T3q3drt2no6XjopOgM02nUueoTqcupmuly9HN0V2qu1/3hu6nYUbDWMMEwxYNqxt2Zdh7veF6fnoCvVK9PXrX9T7pM/QD9bP1l+s36N83wA3sDKINphpsMDht0Dtce7jXcN7w0uH7h98xRA3tDGMMZxhuMWwz7DcyNgo2EhutNTpl1Gusa+xnnGW80viYcY8J3cTHRGiy0uS4yXOGDoPFyGGsYbQy+kwNTUNMpaabTdtNP5tZm8WbFZntMbtvTjFnmqebrzRvMe+zMLEYazHTotbijiXZkmmZabna8qzleytrq0SrBVYNVt3WetYc60LrWut7NjQbX5spNtU212yJtkzbbNv1tpftUDtXu0y7SrtL9qi9m73Qfr19xwjCCI8RohHVI246UB1YDgUOtQ4PHXUdwx2LHBscX460GJkycvnIsyO/Obk65Thtdbo7SmtU6KiiUc2jXjvbOfOcK52vjaaNDho9Z3Tj6Fcu9i4Clw0ut1zprmNdF7i2uH51c3eTuNW59bhbuKe6V7nfZGozo5iLmec8CB7+HnM8jnh89HTzzPfc7/mXl4NXttdOr+4x1mMEY7aOeext5s313uzd6cPwSfXZ5NPpa+rL9a32feRn7sf32+b3jGXLymLtYr30d/KX+B/yf8/2ZM9inwjAAoIDSgPaA7UC4wPXBT4IMgvKCKoN6gt2DZ4RfCKEEBIWsjzkJseIw+PUcPpC3UNnhbaGUcNiw9aFPQq3C5eEN49Fx4aOXTH2XoRlhCiiIRJEciJXRN6Pso6aEnU4mhgdFV0Z/TRmVMzMmLOx9NhJsTtj38X5xy2NuxtvEy+Nb0lQTxifUJPwPjEgsTyxM2lk0qyki8kGycLkxhRSSkLKtpT+cYHjVo3rGu86vmT8jQnWE6ZNOD/RYGLOxKOT1CdxJx1IJaQmpu5M/cKN5FZz+9M4aVVpfTw2bzXvBd+Pv5LfI/AWlAuepXunl6d3Z3hnrMjoyfTNrMjsFbKF64SvskKyNma9z47M3p49kJOYsydXJTc1t0mkJcoWtU42njxtcofYXlwi7pziOWXVlD5JmGRbHpI3Ia8xXxv+yLdJbaS/SB8W+BRUFnyYmjD1wDTNaaJpbdPtpi+a/qwwqPC3GfgM3oyWmaYz5818OIs1a/NsZHba7JY55nOK53TNDZ67Yx5lXva834ucisqL3s5PnN9cbFQ8t/jxL8G/1JaolUhKbi7wWrBxIb5QuLB90ehFaxd9K+WXXihzKqso+7KYt/jCr6N+XfPrwJL0Je1L3ZZuWEZcJlp2Y7nv8h3lmuWF5Y9XjF1Rv5KxsnTl21WTVp2vcKnYuJqyWrq6c034msa1FmuXrf2yLnPd9Ur/yj1VhlWLqt6v56+/ssFvQ91Go41lGz9tEm66tTl4c321VXXFFuKWgi1PtyZsPfsb87eabQbbyrZ93S7a3rkjZkdrjXtNzU7DnUtr0Vppbc+u8bsu7w7Y3VjnULd5j+6esr1gr3Tv832p+27sD9vfcoB5oO6g5cGqQ/RDpfVI/fT6vobMhs7G5MaOptCmlmav5kOHHQ9vP2J6pPKoztGlxyjHio8NHC883n9CfKL3ZMbJxy2TWu6eSjp1rTW6tf102OlzZ4LOnDrLOnv8nPe5I+c9zzddYF5ouOh2sb7Nte3Q766/H2p3a6+/5H6p8bLH5eaOMR3HrvheOXk14OqZa5xrF69HXO+4EX/j1s3xNztv8W913865/epOwZ3Pd+feI9wrva9xv+KB4YPqP2z/2NPp1nn0YcDDtkexj+4+5j1+8STvyZeu4qe0pxXPTJ7VdDt3H+kJ6rn8fNzzrhfiF597S/7U/LPqpc3Lg3/5/dXWl9TX9UryauD14jf6b7a/dXnb0h/V/+Bd7rvP70s/6H/Y8ZH58eynxE/PPk/9Qvqy5qvt1+ZvYd/uDeQODIi5Eq78VwCDFU1PB+D1dgBoyQDQ4fmMMk5x/pMXRHFmlSPwn7DijCgvbgDUwf/36F74d3MTgL1b4fEL6quPByCKBkCcB0BHjx6qg2c1+blSVojwHLAp6mtabhr4N0Vx5vwh7p9bIFN1AT+3/wKkxnyhCYbjfQAAAIplWElmTU0AKgAAAAgABAEaAAUAAAABAAAAPgEbAAUAAAABAAAARgEoAAMAAAABAAIAAIdpAAQAAAABAAAATgAAAAAAAACQAAAAAQAAAJAAAAABAAOShgAHAAAAEgAAAHigAgAEAAAAAQAAALygAwAEAAAAAQAAAGgAAAAAQVNDSUkAAABTY3JlZW5zaG90WmiY3QAAAAlwSFlzAAAWJQAAFiUBSVIk8AAAAdZpVFh0WE1MOmNvbS5hZG9iZS54bXAAAAAAADx4OnhtcG1ldGEgeG1sbnM6eD0iYWRvYmU6bnM6bWV0YS8iIHg6eG1wdGs9IlhNUCBDb3JlIDYuMC4wIj4KICAgPHJkZjpSREYgeG1sbnM6cmRmPSJodHRwOi8vd3d3LnczLm9yZy8xOTk5LzAyLzIyLXJkZi1zeW50YXgtbnMjIj4KICAgICAgPHJkZjpEZXNjcmlwdGlvbiByZGY6YWJvdXQ9IiIKICAgICAgICAgICAgeG1sbnM6ZXhpZj0iaHR0cDovL25zLmFkb2JlLmNvbS9leGlmLzEuMC8iPgogICAgICAgICA8ZXhpZjpQaXhlbFlEaW1lbnNpb24+MTA0PC9leGlmOlBpeGVsWURpbWVuc2lvbj4KICAgICAgICAgPGV4aWY6UGl4ZWxYRGltZW5zaW9uPjE4ODwvZXhpZjpQaXhlbFhEaW1lbnNpb24+CiAgICAgICAgIDxleGlmOlVzZXJDb21tZW50PlNjcmVlbnNob3Q8L2V4aWY6VXNlckNvbW1lbnQ+CiAgICAgIDwvcmRmOkRlc2NyaXB0aW9uPgogICA8L3JkZjpSREY+CjwveDp4bXBtZXRhPgr/RgHwAAAAHGlET1QAAAACAAAAAAAAADQAAAAoAAAANAAAADQAAAJ+0wCKfAAAAkpJREFUeAHsnK3SaWEARp89Q5QUggsQZTdgXADGSARFFjSjSCRJcAWiGVEhuQGjmFHMyGYk55zvy9sO+/j8fOsR9+vnXc9aWfDn30t+eQHIAoGDh5g25vcCDt4hoBZw8CjdhnXwbgC1gINH6Tasg3cDqAUcPEq3YR28G0At4OBRug3r4N0AagEHj9JtWAfvBlALOHiUbsM6eDeAWsDBo3Qb1sG7AdQCsYK/Xq/qdDo6Ho8fO1ar1VKlUvnY+/vi8RaIFfzpdFKxWIz3i2/yqW63q3a7/Sa38TWetYCDf9bS/p23WCBW8LfbTZfLRefzWYfDQcvlUvP5PBIol8tpsVhEvifu4Ww203g8jvx4oVBQrVZTPp9XNptVKpVSMpmM/IwPf98CsYIPm2G73aparYYdfT/7Cn61Wt09/5+D6XSq4XB49yuazaZ6vZ6CILj7Hh8wFnhY8F9zTSYTjUaj0OVeFXw6ndZms1EikQi9lx+yFnho8LvdTuVyOXTBVwVfr9c1GAxC7+SHvAUeGvx+v1epVApd8VXBNxoN9fv90Dv5IW8BB89zjiZ28Gj9PHgHz3OOJnbwaP08eAfPc44mdvBo/Tx4B89zjiZ28Gj9PHgHz3OOJnbwaP08eAfPc44mdvBo/Tx4B89zjiZ28Gj9PHgHz3OOJnbwaP08eAfPc44mdvBo/Tx4B89zjiZ28Gj9PHgHz3OOJnbwaP08eAfPc44mdvBo/Tx4B89zjiZ28Gj9PPinBZ/JZLRer39k4ah/D/Zf7f3I5B/7pX8BAAD//5MPCPQAAAz0SURBVO1cB6xVRRMeeocgCgQQAoGggApSpJdApAgICIhKkw4qPULovYjBCEiN0qULASX0qoIYgdARCb0X6Ui9/3wbdrPn3D2X+9677xz9307yOFtmy5kzOzv7zV6ShZgoRnTs2DGqVauWsbecOXPSL7/8YqxLaOGMGTNozJgxxm6aN29OQ4cONdbZwqQngWRW4ZPeR0/Kb2wVPil//ST47lbhk+BHT8qvbBU+KX/9JPjuVuGT4EdPyq/sm8Jny5aNdu3alSiytihNooj1/7JTq/CGz3r69GnaunUrAbEtVaoUFSlSJIzr2rVrtGfPHrp48aKoy58/PxUqVIiyZ88exhttwYULF+jPP/8Ufb722mv0yiuvUPLkyaNtTocOHRJzwryLFi1KJUqUCGt7/fp12r17N12+fJkeP34s5ouxcufOHcb74MEDOnHiBP3111905coVypMnD+E9CxYsGMYbbcGTJ09En0eOHBFzyJgxo+jv1VdfpXTp0kXbTbz5rMK7RPf999/TwIEDHaVQnO+++44yZ85Md+/epeHDh9OSJUscPDIDzP+jjz6iZMmSyaKITyjnmjVraMSIEWrxyAbYFadNmyYUYdmyZZQ6dWrq0KEDZcmSRbKo55w5c8LiDZj3t99+K/gxb8wN/Zjoww8/pCFDhlCKFCnEQli4cCF98cUX4n3d/I0aNRK8GTJkcFd55mEgfvjhB5o1a1bYe6IR4jQYr0KFCp59xKLCKrwmxYMHD1L9+vVFSbly5WjHjh2qtkqVKtS/f3/q2LGjsFCogBWFRd+3bx/hg0rq3r07ffbZZzLr+bx16xZ16tSJfvvtN8VTsWJFeumll2jdunVGZevXrx+1bdtW8SPxxx9/UNOmTUVZtWrVhOsIBQdVrlyZBgwYENW8MZcuXboIXvnuWHTvvPMO7d27V7yn6JT/wbuvXLlSZj2fWNCzZ88WRkJnql69OuXNm5cOHDhAv//+u6rasmULvfzyyyof8wRPKGbE23GoQIECxr/SpUvHbBx3R9OnTzeOibkMGjTIze6Zf//990U/bOkED56m93nvvfdC7PKEnj59KvjYNQi9/fbbipc/pucYsuLevXuhJk2aqDaQD7sasjr0999/h8qXL6/q5TzmzZuneGTigw8+EHy8S4gijjqHtUP7580bPPI9MJ+5c+eGME9Jo0ePdvTLrp+sMj55QYd4ETnaIH/p0iUH/4oVKxTPyJEjHXWxzsBPjRn9lxX+6NGjSujsrwqZfPnll6pMKhxb7hAU3E3uxXHmzBk3i8o/fPgwxFba0beu7JLx559/dvBgDnxukNXiydc5FA/75aLMrZhoF+28wcu7WYjPJo5xkNm0aZMaC3wLFiwI45EFkFHr1q0d/FiQJtmhDP3hj3cw2UWiPK3CPxPrpEmThMA//vhjJeiWLVuqD4GPUa9evRCU1URuq8pbtYlNlPXt29fRb69evYy8fGh08GEOKNNpwoQJYfOWFl8qUVzmjTbHjx/Xh1DpX3/91TGfyZMnqzp3Yvz48Q7eOnXqGJUd7WAc5FwnTpzo7iqmeavwz8TZoEEDIXTpMkCx5UeQT+wCXoSFIvnw9LLwsOQ6H9Ima4pxDh8+7ODFAnQT3BT0AfcD9M8//zjaoC7SvN07zcyZM0U/pn/4YOzo28vCM6rj4MMcsFuZ6OTJk8qNAp/b3TG1SUiZPbQ+OxWxRRLoAVtbypEjh4D3GjdurM5MbKGIrY/K6wnAdzp0CfQChzwTpAg0RD+kRrrNyQolDpxyrN69e1Pnzp1lVjzd89YPsGCING92Jahw4cKO/gAXpkqVylEmMziwb9iwQWYF6vLGG2+ovEwAceKFI7PiEMp+OrERoTt37hArNZ06dYp4x6CffvpJ8Y0aNYr4HKXyiZGwCu8hVXcwC5AelNNECKixG6GqgPR89dVXKi8TwPeBougEmK5SpUp6kUr36NHDgYQACn3zzTdVvSkxdepUGjdunKqKNG+gSw0bNlS87LsL+FUVaAn34sCiRhwCMKZOvMMIBEcve14aiE+fPn0SHZLEPHxTeAgIAk4MciunPkYkC6rzudPsotC2bdtUMSwRAkEmAn4MvFzS2LFjSd8dZDmjSYQ6nfbv30/p06fXi1S6TJkyDriTXRyBxSsGQ6JVq1bE7oOqiTRvxBYYFVG8fLag9u3bq7ye2Llzp4gvyDL87uGbb76RWfVkF4UAOeqEb582bVqxcyDQBKgTASwEmxgNCttl9LaxTsdU4bFVY8v2ImCuiRFNw48/oPQmQvBl6dKlpirPMmy9+BiSvKwZ6hE5BGav4/CQw4svviibqyfcEeDrkt566y1CoMtEbsUBnq67CaY2JtfKZIVlWwSxNm7cKLNCTqboLBgQg0AwShJcqXfffVdm1dO926EC8Q0o/L+BYqbwfJAghqEc1sX9gsOGDXNYCXd9fPIIkUPhItHmzZtFkCMSj16H0Dtj5KqIsWmaMmWKyusJ9yKP5BbUqFFDBa3QR7du3ahr1656dyqNRYptXtLnn38uAkIyb3q6/fdI88ZChXLLABX689pBsJBgiXVenFEyZcoUNg3sKPo7JeYv3cIGj6YgISde2fbq1auhnj17hp3Mcep2/y1evNgT2pP9RftkdyCEII97DHceARw3fh1pDFZuR58cKfRk5yimg3f58uWKFwExBFr4ICjKeDE4eDmqqHjdCUCV+nuwMgsWIDrAqtlPdzcJASbU20SaN2BTndeEAMkB1q9f7+D99NNPZVWIF3wIeb42IMp4B3PwRupXdeJjIl4WHidtbMW4OMWYbUSrblp0cBGqVq0qrC58wWLFipnYwspwOQrW+uzZs+ICFC41xYVw6QlWDaFr+PamOynoz+0H//jjjw4XR46JAxr8bJPlg2zkvZBFixaJS2gI/8MKS9q+fTvlypVLZtWTI7hUvHhxR7949zRp0hDDpjR48GBhcXUXA42jnTd43f57pB0E1yRWr16NZoI4ZkG1a9cW6Xbt2olvgisJQLiA8uAqgiTslF6/N5Y88ondEhfUTBfZJE9Cn/FSeP1jJnQCcfGx8YHhS8aC4C7Ah3XTo0ePHIfTSP47Fh8+uCR8aA4EiSxQGigGDmi4lwI0AwoBeE4SRy4pX758Mque7vcsWbIk8c4o6tu0aSNuckIOSEuKy7kDbaSiyvZwoUz+O18tINym1EmexQAv8u4pqnhno9dff10sUjwl4QCLw3okgnsFecFtTGwXKHCFh3AgrGjIrQjRtPHi8bJo8E05mKOaRcKxOdgjbg1KZuD04IeSlC1bVnx8YNISsnTP/+uvv6a6devK5uKJQ6R7IUKxoeC4oot+Qbi+DGsoCYdTHRmKNG83xIg+vPB39+FZh1yB6gAqdSs1ZCtvZcJgADXCTVMTYdHgLCMvkDVr1syBHJnaJKQsXgqPD6pvcQmZQNasWcNgLK/+4MJAIWNBwH51JEb2CVwc138lAbbDRzARZKDfily1apW4Ew80BtYf0NvatWsVVn3//n0CMiNdIBxi2e8W9dhZcKuQ78GEDSWhValIOEBi8eiEa8AI3EiKNG9AoRxZlqxhCqsqOHHz5k0H9s9nNfrkk08EoiMP1XhH/Y48vlPNmjVVNzAgmI8e0Lp9+7YIYsE9k/LAtWq+7EcpU6ZUbWOdiJfCx3oS/6b+EM3UdxwvtwNzxo8poHyS4BIguASIEpZt/vz5Ye4ALLPuimCHww9H8H/2wFUE8UGPzp0754AM0TesOMiErUfrLqE9zhS4ZiyJL75RixYtZDbsqZ8NcP6BGyaxfq+2cN0wJ0loJ9G08+fPq/aoh/FBgMzkUsn2MXv6eED+TwzFlkihDOxaPHfO/OONEPu4qg2QDyBHHDr3bAvExYQuoYx3DdEO13Ixvo6kIA2Uy0RxmTdbZNUvL9iQvB1q6hdl/KunELtIqo2cE9CbSAQER78CLdvJJ/pko+B5qSxS3/GtsxbeZTqAQCGqiF8s4ccYQEaeR/ghB4IrsNAvvPCCQG6iCbBhJ4CLhu0dFhDXBty/lOJLaIIHfjfqTYdczC+u84bLdePGDYEkRfOzRBwscViFTw/XBD99jKYd5ob/kQ53Z3AGQVQZQTm4QLiz5DdZhfdb4na8QCVgFT5Q8dvB/ZaAVXi/JW7HC1QCVuEDFb8d3G8JWIX3W+J2vEAlYBU+UPHbwf2WgFV4vyVuxwtUAlbhAxW/HdxvCViF91vidrxAJWAVPlDx28H9loBVeL8lbscLVAJW4QMVvx3cbwlYhfdb4na8QCVgFT5Q8dvB/ZaAVXi/JW7HC1QCVuEDFb8d3G8JWIX3W+J2vEAlYBU+UPHbwf2WgFV4vyVuxwtUAlbhAxW/HdxvCViF91vidrxAJWAVPlDx28H9loBVeL8lbscLVAJW4QMVvx3cbwlYhfdb4na8QCXwP6WAHpXx9facAAAAAElFTkSuQmCC;" vertex="1" parent="1">
          <mxGeometry x="117.69" y="40" width="72.31" height="40" as="geometry" />
        </mxCell>
        <mxCell id="9ALV2XJM24fpJv_ytaoy-3" value="" style="shape=image;verticalLabelPosition=bottom;labelBackgroundColor=default;verticalAlign=top;aspect=fixed;imageAspect=0;image=data:image/png,iVBORw0KGgoAAAANSUhEUgAAAMwAAAA2CAYAAACLK3aNAAAMQGlDQ1BJQ0MgUHJvZmlsZQAASImVVwdYU8kWnluSkJDQAghICb0JIlICSAmhBZDebYQkQCgxBoKKHVlUcC2oWMCGrooodpodsbMo9r5YUFDWxYJdeZMCuu4r35vvmzv//efMf86cO/fOHQDUT3DF4hxUA4BcUb4kJtifkZScwiB1AwLQAlTgBdy5vDwxKyoqHMAy2P69vLsBEFl71UGm9c/+/1o0+YI8HgBIFMRp/DxeLsQHAcCreGJJPgBEGW8+NV8sw7ACbQkMEOKFMpyhwFUynKbAe+U2cTFsiFsBUKFyuZIMANQuQ55RwMuAGmp9EDuJ+EIRAOoMiH1ycyfzIU6F2AbaiCGW6TPTftDJ+Jtm2pAml5sxhBVzkReVAGGeOIc7/f9Mx/8uuTnSQR9WsFIzJSExsjnDvN3Knhwmw1SIe0VpEZEQa0H8QciX20OMUjKlIfEKe9SQl8eGOQO6EDvxuQFhEBtCHCTKiQhX8mnpwiAOxHCFoNOE+Zw4iPUgXijIC4xV2mySTI5R+kLr0yVslpI/x5XI/cp8PZBmx7OU+q8zBRylPqZWmBmXCDEFYosCYUIExGoQO+Zlx4YpbcYUZrIjBm0k0hhZ/BYQxwhEwf4KfawgXRIUo7Qvzc0bnC+2KVPIiVDi/fmZcSGK/GCtPK48fjgX7LJAxIof1BHkJYUPzoUvCAhUzB3rFojiY5U6H8T5/jGKsThFnBOltMfNBDnBMt4MYpe8gljlWDwhHy5IhT6eLs6PilPEiRdmcUOjFPHgy0A4YIMAwABSWNPAZJAFhO29Db3wTtETBLhAAjKAADgomcERifIeEbzGgkLwJ0QCkDc0zl/eKwAFkP86xCquDiBd3lsgH5ENnkKcC8JADryXykeJhrwlgCeQEf7DOxdWHow3B1ZZ/7/nB9nvDAsy4UpGOuiRoT5oSQwkBhBDiEFEW9wA98G98HB49YPVGWfiHoPz+G5PeEroIDwiXCd0Em5PEhZJfopyLOiE+kHKXKT9mAvcCmq64v64N1SHyrgubgAccBfoh4X7Qs+ukGUr45ZlhfGT9t9m8MPTUNqRncgoeRjZj2zz80g1OzXXIRVZrn/MjyLWtKF8s4d6fvbP/iH7fNiG/WyJLcQOYGexk9h57AjWABjYcawRa8OOyvDQ6noiX12D3mLk8WRDHeE//A0+WVkm85xqnXqcvij68gXTZN9owJ4sni4RZmTmM1hwRxAwOCKe4wiGs5OzCwCy/UXx+XoTLd83EN2279z8PwDwPj4wMHD4Oxd6HIB97vD1b/rO2TDh1qEKwLkmnlRSoOBw2YUAvxLq8E3TB8bAHNjA+TgDN7iP+YFAEAoiQRxIBhNh9JlwnUvAVDATzAMloAwsA6vAOrARbAE7wG6wHzSAI+AkOAMugsvgOrgLV08XeAH6wDvwGUEQEkJD6Ig+YoJYIvaIM8JEfJBAJByJQZKRVCQDESFSZCYyHylDypF1yGakBtmHNCEnkfNIB3IbeYj0IK+RTyiGUlFt1Ai1QkeiTJSFhqFx6AQ0A52CFqLF6BJ0DVqN7kLr0ZPoRfQ62om+QPsxgKliupgp5oAxMTYWiaVg6ZgEm42VYhVYNVaHNcPnfBXrxHqxjzgRp+MM3AGu4BA8HufhU/DZ+GJ8Hb4Dr8db8av4Q7wP/0agEQwJ9gRPAoeQRMggTCWUECoI2wiHCKfhu9RFeEckEnWJ1kR3+C4mE7OIM4iLieuJe4gniB3Ex8R+EomkT7IneZMiSVxSPqmEtJa0i3ScdIXURfqgoqpiouKsEqSSoiJSKVKpUNmpckzlisozlc9kDbIl2ZMcSeaTp5OXkreSm8mXyF3kzxRNijXFmxJHyaLMo6yh1FFOU+5R3qiqqpqpeqhGqwpV56quUd2rek71oepHqhbVjsqmjqdKqUuo26knqLepb2g0mhXNj5ZCy6ctodXQTtEe0D6o0dUc1ThqfLU5apVq9WpX1F6qk9Ut1VnqE9UL1SvUD6hfUu/VIGtYabA1uBqzNSo1mjRuavRr0jVHaUZq5mou1typeV6zW4ukZaUVqMXXKtbaonVK6zEdo5vT2XQefT59K/00vUubqG2tzdHO0i7T3q3drt2no6XjopOgM02nUueoTqcupmuly9HN0V2qu1/3hu6nYUbDWMMEwxYNqxt2Zdh7veF6fnoCvVK9PXrX9T7pM/QD9bP1l+s36N83wA3sDKINphpsMDht0Dtce7jXcN7w0uH7h98xRA3tDGMMZxhuMWwz7DcyNgo2EhutNTpl1Gusa+xnnGW80viYcY8J3cTHRGiy0uS4yXOGDoPFyGGsYbQy+kwNTUNMpaabTdtNP5tZm8WbFZntMbtvTjFnmqebrzRvMe+zMLEYazHTotbijiXZkmmZabna8qzleytrq0SrBVYNVt3WetYc60LrWut7NjQbX5spNtU212yJtkzbbNv1tpftUDtXu0y7SrtL9qi9m73Qfr19xwjCCI8RohHVI246UB1YDgUOtQ4PHXUdwx2LHBscX460GJkycvnIsyO/Obk65Thtdbo7SmtU6KiiUc2jXjvbOfOcK52vjaaNDho9Z3Tj6Fcu9i4Clw0ut1zprmNdF7i2uH51c3eTuNW59bhbuKe6V7nfZGozo5iLmec8CB7+HnM8jnh89HTzzPfc7/mXl4NXttdOr+4x1mMEY7aOeext5s313uzd6cPwSfXZ5NPpa+rL9a32feRn7sf32+b3jGXLymLtYr30d/KX+B/yf8/2ZM9inwjAAoIDSgPaA7UC4wPXBT4IMgvKCKoN6gt2DZ4RfCKEEBIWsjzkJseIw+PUcPpC3UNnhbaGUcNiw9aFPQq3C5eEN49Fx4aOXTH2XoRlhCiiIRJEciJXRN6Pso6aEnU4mhgdFV0Z/TRmVMzMmLOx9NhJsTtj38X5xy2NuxtvEy+Nb0lQTxifUJPwPjEgsTyxM2lk0qyki8kGycLkxhRSSkLKtpT+cYHjVo3rGu86vmT8jQnWE6ZNOD/RYGLOxKOT1CdxJx1IJaQmpu5M/cKN5FZz+9M4aVVpfTw2bzXvBd+Pv5LfI/AWlAuepXunl6d3Z3hnrMjoyfTNrMjsFbKF64SvskKyNma9z47M3p49kJOYsydXJTc1t0mkJcoWtU42njxtcofYXlwi7pziOWXVlD5JmGRbHpI3Ia8xXxv+yLdJbaS/SB8W+BRUFnyYmjD1wDTNaaJpbdPtpi+a/qwwqPC3GfgM3oyWmaYz5818OIs1a/NsZHba7JY55nOK53TNDZ67Yx5lXva834ucisqL3s5PnN9cbFQ8t/jxL8G/1JaolUhKbi7wWrBxIb5QuLB90ehFaxd9K+WXXihzKqso+7KYt/jCr6N+XfPrwJL0Je1L3ZZuWEZcJlp2Y7nv8h3lmuWF5Y9XjF1Rv5KxsnTl21WTVp2vcKnYuJqyWrq6c034msa1FmuXrf2yLnPd9Ur/yj1VhlWLqt6v56+/ssFvQ91Go41lGz9tEm66tTl4c321VXXFFuKWgi1PtyZsPfsb87eabQbbyrZ93S7a3rkjZkdrjXtNzU7DnUtr0Vppbc+u8bsu7w7Y3VjnULd5j+6esr1gr3Tv832p+27sD9vfcoB5oO6g5cGqQ/RDpfVI/fT6vobMhs7G5MaOptCmlmav5kOHHQ9vP2J6pPKoztGlxyjHio8NHC883n9CfKL3ZMbJxy2TWu6eSjp1rTW6tf102OlzZ4LOnDrLOnv8nPe5I+c9zzddYF5ouOh2sb7Nte3Q766/H2p3a6+/5H6p8bLH5eaOMR3HrvheOXk14OqZa5xrF69HXO+4EX/j1s3xNztv8W913865/epOwZ3Pd+feI9wrva9xv+KB4YPqP2z/2NPp1nn0YcDDtkexj+4+5j1+8STvyZeu4qe0pxXPTJ7VdDt3H+kJ6rn8fNzzrhfiF597S/7U/LPqpc3Lg3/5/dXWl9TX9UryauD14jf6b7a/dXnb0h/V/+Bd7rvP70s/6H/Y8ZH58eynxE/PPk/9Qvqy5qvt1+ZvYd/uDeQODIi5Eq78VwCDFU1PB+D1dgBoyQDQ4fmMMk5x/pMXRHFmlSPwn7DijCgvbgDUwf/36F74d3MTgL1b4fEL6quPByCKBkCcB0BHjx6qg2c1+blSVojwHLAp6mtabhr4N0Vx5vwh7p9bIFN1AT+3/wKkxnyhCYbjfQAAAIplWElmTU0AKgAAAAgABAEaAAUAAAABAAAAPgEbAAUAAAABAAAARgEoAAMAAAABAAIAAIdpAAQAAAABAAAATgAAAAAAAACQAAAAAQAAAJAAAAABAAOShgAHAAAAEgAAAHigAgAEAAAAAQAAAMygAwAEAAAAAQAAADYAAAAAQVNDSUkAAABTY3JlZW5zaG90hzXtTQAAAAlwSFlzAAAWJQAAFiUBSVIk8AAAAdVpVFh0WE1MOmNvbS5hZG9iZS54bXAAAAAAADx4OnhtcG1ldGEgeG1sbnM6eD0iYWRvYmU6bnM6bWV0YS8iIHg6eG1wdGs9IlhNUCBDb3JlIDYuMC4wIj4KICAgPHJkZjpSREYgeG1sbnM6cmRmPSJodHRwOi8vd3d3LnczLm9yZy8xOTk5LzAyLzIyLXJkZi1zeW50YXgtbnMjIj4KICAgICAgPHJkZjpEZXNjcmlwdGlvbiByZGY6YWJvdXQ9IiIKICAgICAgICAgICAgeG1sbnM6ZXhpZj0iaHR0cDovL25zLmFkb2JlLmNvbS9leGlmLzEuMC8iPgogICAgICAgICA8ZXhpZjpQaXhlbFlEaW1lbnNpb24+NTQ8L2V4aWY6UGl4ZWxZRGltZW5zaW9uPgogICAgICAgICA8ZXhpZjpQaXhlbFhEaW1lbnNpb24+MjA0PC9leGlmOlBpeGVsWERpbWVuc2lvbj4KICAgICAgICAgPGV4aWY6VXNlckNvbW1lbnQ+U2NyZWVuc2hvdDwvZXhpZjpVc2VyQ29tbWVudD4KICAgICAgPC9yZGY6RGVzY3JpcHRpb24+CiAgIDwvcmRmOlJERj4KPC94OnhtcG1ldGE+Cj/WrUEAAAAcaURPVAAAAAIAAAAAAAAAGwAAACgAAAAbAAAAGwAACsIv9gtbAAAKjklEQVR4AexcB4gVPRCew4aKqIiiiIoVCyqKBRWxV1SsqCiKir33XkDsXRTsYu8K9t6wgr1g72LDLvay/3zhT8xms+/dvbsnvv/fgWOzk8kkmWQmk5l9F+cwUACBBAIJxEsCcYHCxEtOAVEgASGBQGGCjRBIIAESCBQmAcIKSAMJBArzH9gDnz9/pvfv31PKlCkpY8aM/4EZ/b1TCBTm710bz8hevXpFU6ZMoRcvXtDLly8J78+ePVN0WbNmpePHj6v3oJD0EggUJullGjWOO3fupJ49e/ryL126NK1du9a3PqhIvAQChUm8DP8Yhy1bttCAAQN8++vatWvIet+GQUW8JRAoTLxF9fcQfv36lbZt20aDBw92DWrRokVUpUoVFy54SVoJBAqTtPL8Y9xsp825c+coffr0f2wM/8eOAoWJ0VUfNGgQbdq0SY2+SJEitHXrVvUeFKIjgUBhoiPXqHMtU6aMiJLJjjp37kxQogCiK4FAYaIr36hwf/jwoeeusmTJEqpUqVJU+guY/pZAoDC/ZREzJdv95cKFC5QuXbqYmUOsDjRQmBhcOfP+UqJECdq4cWMMziT2hhwoTOytGZn3lx49elDfvn1jcCaxN+QkUZiDBw/SyZMn6cOHD5QvXz5q2rQpZciQwSWNT58+0a5du+jixYv05csXUV+5cmUqX768i858+fnzJx06dIgQMn337h0hGoSMdv78+U1S6/ubN2/o+/fvlCVLFms9kPhJELLoZ86coR8/flCOHDmoVq1alCtXLlebmzdvikgU5pkpUyYqXLiwuEskS5bMRRfqBX1dvnxZyOHWrVuE78AQCs6ZMyeVK1cu7Lxs95fly5dThQoV6MGDB3TkyBF6/PgxvX37lvCpTJ48eYS8smfPHmpYYesePXpEN27coOvXr4vv1kqVKkVly5ZNsjA29sTdu3dFH9euXRPjh4yLFi1KNWrUoBQpUoQdo43g9evXdP78eQJPyA588ubNSwULFhTyjouLszXzxSVaYSZNmkQLFizwdICkWqdOnQgbfs6cOTR79mwPDRBwJyZOnCgUzSR4+vQp9e7dm86ePWtW0eTJk6lJkyYevESgX4wB/j5g2LBh1KFDB1mtntjAcHE2b96scLIAPKJP2Njjx4+no0ePyir1rF69Os2YMYPSpEmjcLYCko0wGAsXLhSbzkYDHOY0YcIE8lNC2/3l8OHDQh5Qej+YNm0aNWzY0K/aFw8jMW7cODp27JiVBnV16tShZcuW0aVLl6hatWrUsmVLK60fEkqOT34+fvxoJYHiYP0SMn4Y2NWrV6v1tzGGgYKsYSDjC4lSmL179xI+xwDgZMEG1ycNRVmxYgWdPn1ajad27drCiu/fv1/hIBB8AwVrKAGWFycVLBoApwo+NISlk7Bjxw5hKeS7/sSp17FjR4XC+Pbs2aPeZWHNmjU0YsQI8QqrI/uT9e3bt6d169apecFqwyXScx6jR4+mNm3ayCaeJyxz9+7d6d69e646ZOUzZ84swsMHDhxQdW3btqVRo0apd71g3l9QB/nhQ0wJUDrIz1Sgfv36iXFIulBPGJypU6d6jCHWIXny5MKj8GsPjwAnZjhAH9iwS5cuVaRSvjhxYCj1eWG/4XQIBc+fPxfuqb7nQA/PpECBAuKU0Q1wsWLFxP3Pz0B5+sIvLiMBdl0cdqcc3uROq1atHLyzpRDvwJl/bO0dPhJVV2ytXTT169d3fv36perZoqh6vtAKPLseCgf+ixcvVvRmgZXARdutWzeTxGE30eEjX9CxhRP9b9iwwdVOnwefQg4vssOL7KLhk8vDWyLWr1/vogW//v37O7wRJIlz+/ZtDw1veFWvF3jDemjBE/NgA+WwK6bIWWE8tGzQVL1fAX1DXvrcsT7s6qkm7P4p2el0KOvrrBpYCuZ6suI47D4rSuwHPq3UONhjUXW2Ap+CnjFhb7I75iJnw+ui27dvn6s+1Av894iA3QA1Eb6XCB54msLDO1sqax/NmjVz0WPCAExQ8hkzZoxqCz4Sj+eQIUNUnVmQyizp+Tsrk8SBAsh6PrlEvW2TgYYtlqg3FR11devW9fAGwqYs7FJ5aNmNUeOQ4zEXGY2wSWW9/kT/7Kt7+EJ5dDqUbXz1htikffr0cbWDssC4mMBegosO/KG4MCrh4MmTJ6627Np7mqxcudJFU7NmTQ+NROj7Uc4Z++Pbt2+SxPXEvpJ0q1atctWFeolYYWCR0aE+CXZv1CDkYGyCkAOCpZV0eI4cOVJUydMF1lRfKHNjTZ8+XbJyPW0bi49hFw1epMKyO6XqZs6c6RoTxqWfZHwX8NRDFiZA+fW5oQz5mHD//n0PHWj59y4mqUvBJW8YBpuyyMbyBJX0J06ckFXWJydAPeO5c+eOlRZehcmf3WArrYk0jQlfzE0S4bnIceOJfWED22kXbhzz5s1T87QZMVs/wEWkMHyBVZ3NmjVL8WYfWeExQdPNUoT/FqRiSKFg43JUS/HQlY0jSwov6f0WHy6cpJFP9old3WOTyTpYMgkYg8TjiTnoFhPKo9ejLE8fyQO8zY0E18AGcHNMfu3atbOROgMHDvTQcmTPSgskjI3Jmy/mvvQ4ZU16Dnb40tsUxnaS2xiYLjMU1QS4YPp4pAei02EMOGF1OpTh5voBXEZ9ffje40fqwUekMHwxVgPULbfpX3P0yNOhjujSpYvig0nypx0O/2JQ4XT3gaMxCg9a9AVh2cDcWM2bN/eQQdmkkGHlAfCfJU4+4WfrgDsAX8gdnHZQLr6s69WibN5xwMtmQWVDOTcsIk5dvxPDlK+fxZV8oUxyHvIJ/90PevXq5aHX7y1mO46geeile27Smu9YEzkm+cQdDO1hkAHY2FAsrOfu3btNFuKdgzsePmhjAxgQnCa6HHWjbGtj4iKKkiGvwRMjHgBVrFiREMvmY5GqVq3qCiqw5RaxbhdSe0HuQP+JLcJ7iHydOnVKhGkR9gOwYlDJkiVVpAq4UD+WMhN7CE3zZkAzBRg7ckcIB8t+MKfGjRsrGhTiE5nRG7BvLmSi4/widDoNL4yQo47Tyzb5hvv9y9y5c4ndVsUG8kUI2ga8OT3fp/HGCvkLTnaraOjQoS52iAgiihYO0A7t/QA5ngYNGohIaSh+iGIiLK0DGzIqXry4yPchd4c1YaPoCY0jmjh27FhKlSqV3jxkOSKFsXHEp+YIeepw5coVSp06tY5SZYT/zKSl3wIh/8FuimqLgl9I2baxZGLPxcDygg8YkVeQgHAtwpMJSW6ZmxS8ZE5K8o3kaZNvuN+/NGrUSORGZH/YSAiB28A27uHDhxM2pB+w5Xflr5CDseXkbO1t87HRIU+HPJctV4L/bSCNna2tHw77rHXr1lSvXj0/El98kimMmR+AhUDiyA+QxMMnHTpA45GQNIGjHcThXoUOZbFtiT0k1NKmTava+xWQaNXzIdhwyEUkBGAVr1696mqCnA3yAIkBc3OG+/0LTm6c4DrMnz+fkGi1AfBmnmj79u1UqFAhG7nAmSc5u0Iew+bXGF9LtGjRwpP3stFDWTj068n244NT7BkdsM7ZsmUTpxyMNd7x1Unu3LlFHobdXqvy6TxClf8BAAD//54VEsUAAAnwSURBVO1bd4gVPRAfO3axoNi72BUbWLArKqJiQxGxKzbsKIgFsVcUEXvvHXvFith7713svet+8wskJNnd8+29++e724Fjk8lkkkxmJpPMu0QOA8UBVKxYkd68eaM4DRgwgHr16qXqdmH06NG0bNkyAz1lyhRq1qyZgfv79y+VKVOGvnz5ovAx8R42bBitW7dO0ZYtW5Y2bNig6n6FP3/+UOHChY3miRMnUosWLQxcTJVv375RiRIlDJLUqVPT+fPnKUmSJAY+aMWWb48ePWjw4MG+bBYtWkRjx4412i9fvkypUqUycKh8/vyZSpcubeAx7wsXLlDixIkNvKw8evSIatasKaviu3XrVtf6DQKr8vLlS+rbty+dPn3aanFXR44cSe3btzca9u3bR5CDDl50enu05URxYTBewlu1ahVVqlTJd341atSgx48fG+1Hjx6l7NmzG7ibN29Sw4YNDdy2bduoWLFiBk5WqlSpQi9evJBV6tmzJw0cOFDV/QpQpqZNmxrNBw4coLx58xq4mCpPnjyh6tWrGyS1a9emefPmGbiglQcPHhD46ACDsMfS2xs1akQ3btxQKKxt6tSpqq4Xrl27Ro0bN9ZRVKdOHZo7d66B0yubN2+mQYMG6Si6detWrBwDZH/mzBlhoCdOnDAcrxygatWqtHTpUlkV3xUrVhAMRIcFCxa4DFlvj7oMg4kWNm3a5OTPn9/4+/r1qy/b27dvG7To27t3b0/61atXG7QlS5Z0+DTwpGUDNGjB9/Dhw4oW82TldZ4+fapwssCCNvpWqFBBNkX8ZcUzeGD88ePHR9zfj5BPSBffDx8++JE7XvJl41f0169fF3KQsjl79qyLP+QUE/DpZvTp2rWrIr97966zdu1aZ8+ePQqHAp/AzsyZM51u3bo5HTp0cPhkMdpR4YjCwVyxz7pOtWzZ0kXLEYpBA3o2WhddXCIoLpjZwvNanD7OuHHjXAvFJnsBh2kGrb4xNj17PYMWApSKxaeOauOj3O7qdO7cWbWjH59KLpp/IfiEMXiADww+CPz+/dtFzp7c4MunhYtGR8yYMcOgh/J9//5dkXBoI9qhtAAvAzty5IiitwtQajgUrE/+weFIkPO19QCGIunxBQ/w8oLdu3cbtF4O9eDBgwYNeHLo7sXOF+clb19ibogTg7GFN3nyZN8x37175/IeMDg/4HuEIZQxY8b4kTpDhw41aHXF0k9BGI8OEJq+kSjzPUgniaj848cPF5/t27dH1BdEmBfmzOGR8/79e9UviHzRqV69esY8IBcJz549U20c0gg0nIq9/kuXLskuri+HTy56nFIAyFKeDhwCqr44dewxUIfMvMA24lmzZrnIbBrw4/uYi84PgZMbc12zZo0fiQsftcE8fPjQJYhRo0a5BgICoRROCF1wHIc7/FjgSQ/kpEmTDHp4KS+AssmNkvxhbBKkd2vevLlEqS/H0MYY6I8Njg3Y65szZ05EbM6dO2d4bX4oEP285CtDKS/GMDS5fvk9duyYItVPbN0obdnxPVH10QuQc+XKlV1jyBAcYZYc9+rVq6qr12nQunVr1W4XEBJKPvhCDjb8/PnTkBnosJeRAN+HFP+OHTtG0kXQRG0wuueWC4Twnz9/7poEXyLVJEELuvv377vodAQ8veSLL7ytDTi14JV1OpTXr18vSPVQafHixXZ3x46FYwoVXJ0tBJRZnwd46YppkYuQBB5O76Ofol5h5qdPn2w2qo4YXueFMhQLoHtk26nZjmnEiBGKpyzAWPjxwcUfBiShX79+oh2OUIdDhw4Z/bD3uEt5gU2rOz6bXld8rFU/TW1a1LGGPn36qLlgHkGcY9QGY99f5GYhLMDkADh24WllG76YKLzqvwDKofdDedeuXaIbjn+EAtgcmwZ1KAXGhgdBHWN+/PjRNSQ/bRr9EYNHA/qGYNw2bdooWYAvTlqcIFBS21tDTnpcD8XV12bfC+x52uEl1gyAscixYMTybif7Y6/0cdCPXyhFM3jCMQKn0+hlOC3dWUCRdXj79q3RF2t//fq1IoFM+LXVgUPT+UKP8FjgB7iz2Ps/e/ZsERrKPuANPeFUhsEbdzl+gZRkEX0TgSqapzY7P2DzypcvH/EpYqCRG5k+fTrlypXLwPtVli9fTqz8RnOmTJlcz4/sXWjlypWu52rZ0e+NHk+o+hynTZtGTZo0kd0Cf9nIiS+pxKGQ0bdgwYKUJUsW8fyq56xAhLYJEyYQZKNDq1atiDdbofr37y94K4RHYciQIbRx40bVYsuKTzRio1HtssAKT506dZJV8cW8OFpQeTDkZyCf48ePu/JosmOpUqVE7svOPe3cuZPYmUgy8c2WLRtlyJDBeAKXBMjzYKx06dJJlOeXwzViR+LSB8wDe6HvLRhAHtAnO13hydxCRmUwmGitWrUMlsg5QFHspCSIYDzdu3cXycmkSZMa/f5V2bJlC7G3VRun0xcvXlzkGAoVKkR37twRySxbSEh62W/2kgffb4ifMkUVCgJlS5MmjWyO1Ze9MrG3pPnz57s2UmeI/Eq7du0IeQavJCESezt27BBdoKxQupw5c+osXGU+VYlDI9q7d6/RBkVZuHAh8Ulh4PUKkqwwdj5xdLQoQ8FgjHB07LXFfsD4dIABwGn55a/An5/aDSeg90cZ+bu2bdtSgwYNIs7rwAEhb4T1+QHmjcR4ly5dCLKMDURlMFAsCFAHJKGQTUYy7MqVK8TxM6VMmVJ4UGyUl1Lo/WMqQwnBEwlCeL3cuXOLXwFkzZrV1Q3tp06dEllsZN/tTLbegUMDQsKMQyGRDITHiyuA8nKsLrzcq1evKFmyZJQ2bVoqUqQIFS1alP7lOPgyTcho87MwIdnrtVa/uUIGFy9eFDKHsypQoEBE8ocx8CsZISEND439g0F7jQ1FRcIZdFhX3bp1I1JGyAX87927R5B/xowZBf8cOXJ4juO3RhvPoaHQPegIh9/i9MqcOTNxmEd58uSxyQPXozIYZHqR8ZVQrlw542cpEh9+QwnEFwnE2mBw9cHRqcfiOMoRY4cQSiC+SiDWBoO7Qv369Q25LFmyhKpVq2bgwkoogfgkgVgbDP/kg4YPH27IAhe6f71oGB3CSiiB/5kEYmUwCMfw/Mi/N1LLxaVy//79qh4WQgnERwkEMhj8PPzkyZPEv/b1fHbEk2z69OkpefLk4kkVL0IhhBKITxIIZDB4lowU+OcGkZKGdKEE/jcSCGQwyDojH4A8S4oUKcSb/q9fvwj5Efwh54I3/PLlyxP+ozKEUALxTQKBDCa+LT5cTyiBoBIIDSaoxEL6BC2B0GAS9PaHiw8qgdBggkospE/QEggNJkFvf7j4oBIIDSaoxEL6BC2B0GAS9PaHiw8qgdBggkospE/QEvgPZFxEtXQq3x0AAAAASUVORK5CYII=;" vertex="1" parent="1">
          <mxGeometry x="240" y="360" width="113.33" height="30" as="geometry" />
        </mxCell>
        <mxCell id="9ALV2XJM24fpJv_ytaoy-11" style="rounded=0;orthogonalLoop=1;jettySize=auto;html=1;exitX=0.5;exitY=0;exitDx=0;exitDy=0;entryX=0;entryY=1;entryDx=0;entryDy=0;endArrow=none;endFill=0;" edge="1" parent="1" source="9ALV2XJM24fpJv_ytaoy-4" target="9ALV2XJM24fpJv_ytaoy-9">
          <mxGeometry relative="1" as="geometry" />
        </mxCell>
        <mxCell id="9ALV2XJM24fpJv_ytaoy-4" value="" style="shape=image;verticalLabelPosition=bottom;labelBackgroundColor=default;verticalAlign=top;aspect=fixed;imageAspect=0;image=data:image/png,iVBORw0KGgoAAAANSUhEUgAAAMwAAAA6CAYAAAD86bb2AAAMQGlDQ1BJQ0MgUHJvZmlsZQAASImVVwdYU8kWnluSkJDQAghICb0JIlICSAmhBZDebYQkQCgxBoKKHVlUcC2oWMCGrooodpodsbMo9r5YUFDWxYJdeZMCuu4r35vvmzv//efMf86cO/fOHQDUT3DF4hxUA4BcUb4kJtifkZScwiB1AwLQAlTgBdy5vDwxKyoqHMAy2P69vLsBEFl71UGm9c/+/1o0+YI8HgBIFMRp/DxeLsQHAcCreGJJPgBEGW8+NV8sw7ACbQkMEOKFMpyhwFUynKbAe+U2cTFsiFsBUKFyuZIMANQuQ55RwMuAGmp9EDuJ+EIRAOoMiH1ycyfzIU6F2AbaiCGW6TPTftDJ+Jtm2pAml5sxhBVzkReVAGGeOIc7/f9Mx/8uuTnSQR9WsFIzJSExsjnDvN3Knhwmw1SIe0VpEZEQa0H8QciX20OMUjKlIfEKe9SQl8eGOQO6EDvxuQFhEBtCHCTKiQhX8mnpwiAOxHCFoNOE+Zw4iPUgXijIC4xV2mySTI5R+kLr0yVslpI/x5XI/cp8PZBmx7OU+q8zBRylPqZWmBmXCDEFYosCYUIExGoQO+Zlx4YpbcYUZrIjBm0k0hhZ/BYQxwhEwf4KfawgXRIUo7Qvzc0bnC+2KVPIiVDi/fmZcSGK/GCtPK48fjgX7LJAxIof1BHkJYUPzoUvCAhUzB3rFojiY5U6H8T5/jGKsThFnBOltMfNBDnBMt4MYpe8gljlWDwhHy5IhT6eLs6PilPEiRdmcUOjFPHgy0A4YIMAwABSWNPAZJAFhO29Db3wTtETBLhAAjKAADgomcERifIeEbzGgkLwJ0QCkDc0zl/eKwAFkP86xCquDiBd3lsgH5ENnkKcC8JADryXykeJhrwlgCeQEf7DOxdWHow3B1ZZ/7/nB9nvDAsy4UpGOuiRoT5oSQwkBhBDiEFEW9wA98G98HB49YPVGWfiHoPz+G5PeEroIDwiXCd0Em5PEhZJfopyLOiE+kHKXKT9mAvcCmq64v64N1SHyrgubgAccBfoh4X7Qs+ukGUr45ZlhfGT9t9m8MPTUNqRncgoeRjZj2zz80g1OzXXIRVZrn/MjyLWtKF8s4d6fvbP/iH7fNiG/WyJLcQOYGexk9h57AjWABjYcawRa8OOyvDQ6noiX12D3mLk8WRDHeE//A0+WVkm85xqnXqcvij68gXTZN9owJ4sni4RZmTmM1hwRxAwOCKe4wiGs5OzCwCy/UXx+XoTLd83EN2279z8PwDwPj4wMHD4Oxd6HIB97vD1b/rO2TDh1qEKwLkmnlRSoOBw2YUAvxLq8E3TB8bAHNjA+TgDN7iP+YFAEAoiQRxIBhNh9JlwnUvAVDATzAMloAwsA6vAOrARbAE7wG6wHzSAI+AkOAMugsvgOrgLV08XeAH6wDvwGUEQEkJD6Ig+YoJYIvaIM8JEfJBAJByJQZKRVCQDESFSZCYyHylDypF1yGakBtmHNCEnkfNIB3IbeYj0IK+RTyiGUlFt1Ai1QkeiTJSFhqFx6AQ0A52CFqLF6BJ0DVqN7kLr0ZPoRfQ62om+QPsxgKliupgp5oAxMTYWiaVg6ZgEm42VYhVYNVaHNcPnfBXrxHqxjzgRp+MM3AGu4BA8HufhU/DZ+GJ8Hb4Dr8db8av4Q7wP/0agEQwJ9gRPAoeQRMggTCWUECoI2wiHCKfhu9RFeEckEnWJ1kR3+C4mE7OIM4iLieuJe4gniB3Ex8R+EomkT7IneZMiSVxSPqmEtJa0i3ScdIXURfqgoqpiouKsEqSSoiJSKVKpUNmpckzlisozlc9kDbIl2ZMcSeaTp5OXkreSm8mXyF3kzxRNijXFmxJHyaLMo6yh1FFOU+5R3qiqqpqpeqhGqwpV56quUd2rek71oepHqhbVjsqmjqdKqUuo26knqLepb2g0mhXNj5ZCy6ctodXQTtEe0D6o0dUc1ThqfLU5apVq9WpX1F6qk9Ut1VnqE9UL1SvUD6hfUu/VIGtYabA1uBqzNSo1mjRuavRr0jVHaUZq5mou1typeV6zW4ukZaUVqMXXKtbaonVK6zEdo5vT2XQefT59K/00vUubqG2tzdHO0i7T3q3drt2no6XjopOgM02nUueoTqcupmuly9HN0V2qu1/3hu6nYUbDWMMEwxYNqxt2Zdh7veF6fnoCvVK9PXrX9T7pM/QD9bP1l+s36N83wA3sDKINphpsMDht0Dtce7jXcN7w0uH7h98xRA3tDGMMZxhuMWwz7DcyNgo2EhutNTpl1Gusa+xnnGW80viYcY8J3cTHRGiy0uS4yXOGDoPFyGGsYbQy+kwNTUNMpaabTdtNP5tZm8WbFZntMbtvTjFnmqebrzRvMe+zMLEYazHTotbijiXZkmmZabna8qzleytrq0SrBVYNVt3WetYc60LrWut7NjQbX5spNtU212yJtkzbbNv1tpftUDtXu0y7SrtL9qi9m73Qfr19xwjCCI8RohHVI246UB1YDgUOtQ4PHXUdwx2LHBscX460GJkycvnIsyO/Obk65Thtdbo7SmtU6KiiUc2jXjvbOfOcK52vjaaNDho9Z3Tj6Fcu9i4Clw0ut1zprmNdF7i2uH51c3eTuNW59bhbuKe6V7nfZGozo5iLmec8CB7+HnM8jnh89HTzzPfc7/mXl4NXttdOr+4x1mMEY7aOeext5s313uzd6cPwSfXZ5NPpa+rL9a32feRn7sf32+b3jGXLymLtYr30d/KX+B/yf8/2ZM9inwjAAoIDSgPaA7UC4wPXBT4IMgvKCKoN6gt2DZ4RfCKEEBIWsjzkJseIw+PUcPpC3UNnhbaGUcNiw9aFPQq3C5eEN49Fx4aOXTH2XoRlhCiiIRJEciJXRN6Pso6aEnU4mhgdFV0Z/TRmVMzMmLOx9NhJsTtj38X5xy2NuxtvEy+Nb0lQTxifUJPwPjEgsTyxM2lk0qyki8kGycLkxhRSSkLKtpT+cYHjVo3rGu86vmT8jQnWE6ZNOD/RYGLOxKOT1CdxJx1IJaQmpu5M/cKN5FZz+9M4aVVpfTw2bzXvBd+Pv5LfI/AWlAuepXunl6d3Z3hnrMjoyfTNrMjsFbKF64SvskKyNma9z47M3p49kJOYsydXJTc1t0mkJcoWtU42njxtcofYXlwi7pziOWXVlD5JmGRbHpI3Ia8xXxv+yLdJbaS/SB8W+BRUFnyYmjD1wDTNaaJpbdPtpi+a/qwwqPC3GfgM3oyWmaYz5818OIs1a/NsZHba7JY55nOK53TNDZ67Yx5lXva834ucisqL3s5PnN9cbFQ8t/jxL8G/1JaolUhKbi7wWrBxIb5QuLB90ehFaxd9K+WXXihzKqso+7KYt/jCr6N+XfPrwJL0Je1L3ZZuWEZcJlp2Y7nv8h3lmuWF5Y9XjF1Rv5KxsnTl21WTVp2vcKnYuJqyWrq6c034msa1FmuXrf2yLnPd9Ur/yj1VhlWLqt6v56+/ssFvQ91Go41lGz9tEm66tTl4c321VXXFFuKWgi1PtyZsPfsb87eabQbbyrZ93S7a3rkjZkdrjXtNzU7DnUtr0Vppbc+u8bsu7w7Y3VjnULd5j+6esr1gr3Tv832p+27sD9vfcoB5oO6g5cGqQ/RDpfVI/fT6vobMhs7G5MaOptCmlmav5kOHHQ9vP2J6pPKoztGlxyjHio8NHC883n9CfKL3ZMbJxy2TWu6eSjp1rTW6tf102OlzZ4LOnDrLOnv8nPe5I+c9zzddYF5ouOh2sb7Nte3Q766/H2p3a6+/5H6p8bLH5eaOMR3HrvheOXk14OqZa5xrF69HXO+4EX/j1s3xNztv8W913865/epOwZ3Pd+feI9wrva9xv+KB4YPqP2z/2NPp1nn0YcDDtkexj+4+5j1+8STvyZeu4qe0pxXPTJ7VdDt3H+kJ6rn8fNzzrhfiF597S/7U/LPqpc3Lg3/5/dXWl9TX9UryauD14jf6b7a/dXnb0h/V/+Bd7rvP70s/6H/Y8ZH58eynxE/PPk/9Qvqy5qvt1+ZvYd/uDeQODIi5Eq78VwCDFU1PB+D1dgBoyQDQ4fmMMk5x/pMXRHFmlSPwn7DijCgvbgDUwf/36F74d3MTgL1b4fEL6quPByCKBkCcB0BHjx6qg2c1+blSVojwHLAp6mtabhr4N0Vx5vwh7p9bIFN1AT+3/wKkxnyhCYbjfQAAAIplWElmTU0AKgAAAAgABAEaAAUAAAABAAAAPgEbAAUAAAABAAAARgEoAAMAAAABAAIAAIdpAAQAAAABAAAATgAAAAAAAACQAAAAAQAAAJAAAAABAAOShgAHAAAAEgAAAHigAgAEAAAAAQAAAMygAwAEAAAAAQAAADoAAAAAQVNDSUkAAABTY3JlZW5zaG90h9AP+AAAAAlwSFlzAAAWJQAAFiUBSVIk8AAAAdVpVFh0WE1MOmNvbS5hZG9iZS54bXAAAAAAADx4OnhtcG1ldGEgeG1sbnM6eD0iYWRvYmU6bnM6bWV0YS8iIHg6eG1wdGs9IlhNUCBDb3JlIDYuMC4wIj4KICAgPHJkZjpSREYgeG1sbnM6cmRmPSJodHRwOi8vd3d3LnczLm9yZy8xOTk5LzAyLzIyLXJkZi1zeW50YXgtbnMjIj4KICAgICAgPHJkZjpEZXNjcmlwdGlvbiByZGY6YWJvdXQ9IiIKICAgICAgICAgICAgeG1sbnM6ZXhpZj0iaHR0cDovL25zLmFkb2JlLmNvbS9leGlmLzEuMC8iPgogICAgICAgICA8ZXhpZjpQaXhlbFlEaW1lbnNpb24+NTg8L2V4aWY6UGl4ZWxZRGltZW5zaW9uPgogICAgICAgICA8ZXhpZjpQaXhlbFhEaW1lbnNpb24+MjA0PC9leGlmOlBpeGVsWERpbWVuc2lvbj4KICAgICAgICAgPGV4aWY6VXNlckNvbW1lbnQ+U2NyZWVuc2hvdDwvZXhpZjpVc2VyQ29tbWVudD4KICAgICAgPC9yZGY6RGVzY3JpcHRpb24+CiAgIDwvcmRmOlJERj4KPC94OnhtcG1ldGE+Cifi+88AAAAcaURPVAAAAAIAAAAAAAAAHQAAACgAAAAdAAAAHQAAC3xBWp+zAAALSElEQVR4AexbdegWTxMfOzFQDETEQMVusbu7we5W7Mbu7g4UuwO7xe7u7sAuzHvns7y77N7dU9/HP358uYGH29ud3b2d2Ymd2SeKxUAeeBTwKBAUBaJ4AhMUnTwkjwKCAp7AeBvBo0AIFPAEJgRieageBTyB8faAR4EQKOAJTAjE8lA9CngC4+0BjwIhUMATmBCI5aF6FPAE5h/tgZ8/f1LMmDH/0WjeMP9VCngCEyZnnj17Rt27d6dz585RhgwZaPPmzRQnTpwwR/W6/1cp4AlMmJxp1qwZHT16VI0ybdo0qlq1qnr3CpGLAp7AhMHPjx8/Up48eYwRli1bRkWKFDHqvJfIQwFPYMLg5f79+6lt27bGCOfPn6eECRMadd5L5KGAJzBh8HLUqFG0ePFiNULmzJlp+/bt6t0rRD4KeAITBk8rVKhAd+/eVSO0bNmSBg4cqN69QuSjgCcwEeTphw8fKG/evEbvefPmUdmyZY067yVyUcATmAjy8/DhwwSLosPZs2cpceLEepVXjmQUCEtgoGVPnz5NV69epZcvX1KMGDEoSZIklCNHDipcuDDFjRvXlVyILh04cIAuX75M0aJFo2zZsgn8ZMmSueLbKzEXxk6QIIG9KeD7nz9/6NGjR3T79m26efMmPX/+XBzS06RJQ9WqVXM9sON7sVaA/L/d0qVLCRExCVj36tWrKWrUqLKKsB5fNFBIWuHVq1d04sQJunTpEv39+1eMlTRpUipZsiRlzZpVw3QWv337Rhs2bKDr168LPmTPnp0qV65M8eLFM5Cx/lOnTok5Xr9+Td+/f6fkyZNT2rRpCS6mWw7p3bt3dOXKFUGz+/fvU/z48Sl9+vSCb+BduAB+YC/cuHGD8E3ga8aMGSlXrlyEc6EvAC927NhBUFS/f/+m1KlTizWAlzqA11u3bqXPnz+L/ZklSxYqVaqU2Hs6XjDlCAnMvXv3aPny5caGsU+GDTRr1izKnz+/0XTmzBnq1KkTvX371qgHY1euXCmYYDRoL9hQbdq0oWvXrolabBAQNVgAs7t166b6u/Vr3bo19evXj6JEiSKawZSCBQs6vtetr72uR48eYq32ev0dgrFlyxaaO3eucR7ScVAuWrQo9erViyAIdoBA169f37X/unXrVOgbgtKlSxefawEPwLNixYqJKSCEixYtoqlTp9qnVO+gV8+ePUO+5fDr1y9ClBFKB9/lC5o2bUq9e/d2KB7wpU+fPrRx40ZHV9S3a9eO7ty5Q6NHj6YjR444cOA6T5kyxTGuA9FWEZLAQDvNmDFD/PRxINn58uUTmwyaQh6EwYBt27aRlHhs2HLlyqmuZcqUoZMnT9LXr19FHfAvXLjgU/LHjh1LCxYsUP1DOWQjAw/GSsBcyJfEjh1bzPnkyRPZRBMnTqRatWqJd1iziOZVJk+eTDVq1FDj2guwBkOHDhW3BPQ20DN37tz08OFDoXn1NigVCLAOEAJoWgDOVbh1IAHr3Lt3r+DDmDFjZLXwAmAdoNVBcx327NkjrAg2q+Ql2itWrCgs1qFDhwyhw/esWLFCKRl9LLcy5uvcubPwSvT2QoUKUcqUKcX3PHjwQDUhdN+3b1/1jsKqVato0KBBog5WCN6CDtgba9asUXsrRYoUVKBAAWFpJN6QIUMIawwJWFKDAt44VoMGDax06dKpH2s7a9++fRZrSTEGC5TFUqvagTtz5kzRxtrKKl++vGhDP7YSor5jx44GPgucz+8pUaKEgcvaySeu3oC59O9mTW29f/9eR7HYxVI4+D7WgKKdTb3FQm9hLvlr3769wpXjLlmyRLVLPHZ3jDn0F+DIvvLZtWtXi6/a6GgWh6kdeI8fP1Y4nPdR7Wz1RT1rZFUnx5bP5s2bW+whqP7gHW9IA79FixaWTus5c+ZYrNRUH7b0Bj7GZiuh2n0VMBdbLEffYcOGWdhfOrBQGnhv3rxRzdhL4BHmZWUh9h9bUgNfrhdPtkIW9iYrDAOnVatWasxgC/DJAwKbfLXZ5YdAeNjfNPru2rXL+CDgQiAA+gbZuXOn6lezZk2jz6ZNm1SbXsAmkXPLJ/v6OoprGYRiX171rVevngUh0IE1vWqXY7PLqKMYZbZ0Bj6ffYz2QC86LeR87JIpxWPvz5rUmI+tkkKB8GMMbHC5rpEjRxr4co7x48e7zsHa2hUf/S5evKjm0gt2vkHhBIIJEyY45sHcvoA9EIV/69YthQYBkGtiz0DUs4VVdbINTynI7JY52rEvQoWAAsO3cC02W8ZkWAgfgh1zuWm2ESNGCOmWGgvaTAK0ir44lPlelmw2njqRZJ8fP34YOG4v0KYSH8/58+c70NhvN3Dwrf5AF0CMCQEKFo4fP27Mhf6BNhuYrq8B5U+fPllfvnxR9bNnz1afYOcX8CF0voAjfmocfR4+b/rqIjS7jgvPwh/s3r3bMQesjT+ANZRzSMEAPpQe6rFOCXzOUriyjz7+pEmTHO2wTqFCQIFx+xBfhBwwYIDjo+Ay6NLN0TH1jZwld+BzJEO16wW7MDZq1Ehv9lmGOyUJiCcHDRy4cKd0HD57OHBkBVw5HRdlfU0Sz+0Jq8VBEKM/NLW0DG59UOdmXeFm8tlEjcU+vOgOV9L+fVAAuktln8dNGYHv/sDunvPZ0if606dPXb/Jn8KDqy/XAQsu3X6O2Kl66YJiYruSQB94FxLcXEFpfSROME+/AuPmq8K/9QV8gLTAHCwUVghmEiCFTj8boN6uqTmqhGpXsG+06dOnu+LZK4EnCS+fEOxjx44JLQ18bCY+6FscQbMgxLCqvoAjO47x7OchX33dXCUolEDgZomhsSVdQRu5oeCmynXKJ4eq/U5hd/nAQ380wBlCji2fUEy+YNy4cUHjQyD4xreBj/OMBN1Cc1BEVLspCbi9OoDHgwcPFvsSwgU+RgT8Rsn4MOYIHfMBkPjw7jewwMwz8hGsYYh9UEqVKpWKqyOqUaVKFWMc1vRUvHhxow4viNOXLl3aqEdYG1GVQGCPjtnxEWFB/qFJkyZBJR2Z+cRunRom2PtjL168EKFh1ZELiIYh4hQIWBNSw4YNDbThw4cTb2wHXXG3DXfcJCBKxucQgx+yTT6R59GjhB06dBAhbNlufyJX1LhxY6Maf3FAhMsOyPMgisYb1mhCxDN69OgiD4QUA/5XhD2CKKsOiCKCNxIQ6sb8yG9J/iNvVbt2bYkinoj0IVf0r8GnwGChbkkphEJjxYoV9ncgdAvhk+AvpIx8C2LrOiCRFkxS0E3Y9HFkGXkj/JdFMkHW25/Vq1c38jjIQ/Tv39+O5njHWrFmHZATQkg4ECBHwwdmA40P8FSnTh2jDi8IwSK/IYGtuCMNINvwRG4LSWYdIHQQRl+AcDnyNRKQ9GQXSr4aTw4EBcxFGR3+/4L/FOG/Rva/T7jh2pUEeAklI3Npbn0iWudTYA4ePEjYDDog2YP7UuECm0KhbdnVUEP5y6lAWCA0EpCjWL9+vXwN+MSGXrt2bUA8ICBnwW6GKy4ShHYGwtognxQIkNexa0/kTjJlyhSoq+AD+KHDwoULRbZar2OfXWTI9Tp4CXZroLfjG+xCG+gvCtgHep6E3XSVE9HHRhl5M1gTHbChcYUIihd5MNwcwI0G/GMV9MiZMyclSpRI7+K3bFcSoLVdOfkdIIRGnwLD/rFDM9nNYwjzGKi4qlCpUiWjDokoJJbcAIlDXbhwUwBZ9GABGwnfjqRfIIC7qVs+Hd9NiQRzfwxXMuw3EoJxlTA3BwSEkNpdGj6DEZJxOsDqchBBrxJ/N/B3vcTuduMKDq6R+ALcsoCV1cEtmSrb7X+BQD2S2bie8i/ATUnAba5bt+6/GN4xxv8AAAD//1V5TokAAAkHSURBVO1ZV6hWPwzPdSAuVMQB4sQHwYWI4N744Ba3orgHuAdORFEERcTxIO6B4t57DwQn7r33FrfiPP/8yr+lPV/P+e7Ve6EPDXx8bZq0aZo0OWlKwEAWGDNmDK1bt84Y2bJlC5UvX97A/U1n1apVNGHCBMWaM2dOOn/+PGXOnFnhZOPx48dUt25d2RX/y5Yto1q1ahm41HQw18mTJ+nChQt09uxZunPnjpXt1q1bVlmmTZtGCxYsUDylS5emvXv3qn5U49GjR1SvXj1juFGjRjRv3jwDZ+ucOXOGOnToYAzVrl2bli5dauDQWbx4MU2dOlXh4/QqiRo2bEj379+XXerTpw+NGjVK9cON6dOn0/z58xU6f/78dOLECau+QDRw4EDatWuXokfj3LlzlCdPHgP3t53Lly9Ty5YtDfaDBw9SiRIlDFx6dVKiHKZ///60b98+Y5302ujgwYNpx44dau4mTZrQnDlzVF9vwEmHDx+uo4TB586dm75+/Upr164VY126dKEsWbIous2bN9Pu3btFv379+glGh4Hbt2/TkCFD6MaNG4oPjStXrlD27NkNHDrNmzenq1evKnyPHj1o3Lhxqo/Gr1+/aPXq1fTz509q164d5cqVi65fv05NmzY16GCUMM5kMGXKlATnWLRoUYIDYp5evXrR4cOH1ZTJnPLly5dUvXp1RY/GwoULCfqywe/fv6latWr09u1bNazr4P3797Rp0ybKkSOH2HumTJkobEdw4kuXLin+f22ELwk48OnTp/912mh+OIwNxo4dG5QqVUr9OLLYyGJxbDzWcb4R1LxYgzdtpQNy9OjRBi14JezcuVONvXv3TqKD5cuXK7zcA9+ialxvvHr1yqCN2icbg0GHeTm66FOJ9rZt2xTd3bt3BY4dU+GkPNu3b0/gDSOePHmSwNe2bdvAplfg5Nzyf8WKFeEpjb6uP8mj69Eg5g5H54Q1+BJVZBx51PiPHz8EnqOywmEN/fwUY5KGbb+SpWfPnsb8fLnKoQz5p6hZ586dawhSp06dKFIrnm/ZAMa3Zs2ahPFmzZoZc9sMTzLxDWjQckoghwK+pcVYgwYNFA6NKlWqGDw4qFOnThk0egdySoPp2LGjPqTahw4dUjSSFs6mA0e8AHrCePfu3dXQ9+/fE3g5LVXjtsafP3+Cbt26JfBxemcjDy5evJhAy5HNSiuR48ePN3hwLnEg9S33j7PhqCNYIC/OAWMwYgmwA0mP/7Q4DBwFMuI8OSrJKdW/7ZLgzwg1nhGNSIfh3NDYKDYb5+lSOBiHfhC64UiacIRBRLCBzUiPHDkiSLGONPSZM2cqdlskgOxfvnxRNHqDv52MfXIqpw+r9vr16w06OEYYRo4cqWhu3rxpDHMur8YgDy6kONiwYYNBDx5OdyJZlixZYtBDN9KYo5iwB8wrf4gGcRC+vHS9Hz9+XM1z4MABNQ1/Dyo81oFcMvooIksDNIMGDVK8/O2YQGWzURnVE4jTCRHpMJg/bNicO8cu++LFiwApgzwAKMe2AYRNSYN/Wxi9du2acgidVqZWSGkknr85lFwfP35UeDmONMkGDx48CHSjad26deSlEDZg/RbF3CtXrlTrIp0Nw9GjR9U45MKt+enTpzCZ6B87dsygBf2sWbOstBLJ30MGDxw0Dp49e2bQYw3IGAfygpJ65cKJIP/27ZvSoy1C9+vXz1gr6lKSa+MS07MQnAuidxiQckpZ8A+dItJlJMQ6DEK6LhDaMBwdkPPi5uvdu7dB27hxY6uzgDecC+MguGIlpoXy+UPfmEuXAXk3UiGZdnXu3FkXR7ShYMnTvn37BDlev34d7N+/P8Ehbc4tJ0euLufEPxwNhwhZJk2apMb4QzuA09ognNJA9ufPnytSXDhc5VJzyfWgjziAkYSNmYshcSyB7fvl8+fPsTxwBikT/mEf2GvXrl0VHrd+GMJ2BFmRPeiAc+ciUzBgwAA1F9aYOHFi5MWiRyDQjhgxQp8yQ9qRVTJZJkClDJUOHVCJYAGJ0yJrxYOdh4YOHUrZsmXT2VSbd0K82YRyY+HChYmNRtGh37dvX2KDVLhwA9WwChUqGOiHDx8S31DEaZjCQ+YCBQoQO4tR5QFB0aJFCZUnlInjgFMuUQWSNJhTrxiVLFmSONIQ5LYBRxRigyBOX4xhrIsKFEdPA1+2bFmx90qVKhn4cIedVlSvdDynrmJfOk5vz54926hMovoF2eNg69atNGzYMEWCipeuY5Td27Rpo8b1Bqdp4ix1HPRXrFgxevPmDaHkrwPOFBVC6CAKwiVxThGpRYsWUeTpgk/qMFiF0yOCgrHpKIDR8c0uyrcwzGQAA0FNH4ZqA5SaJ0+eLOr1qOPzTWMYJ3jiFMQ3N82YMYNQlo4CGHinTp2I00hCmToZoGwKmWxz8i0rStTJ3hc4GhCnEkJ23dj0tStXrizeL2rWrEkpKSn6kLWN8nrVqlWV8bZq1Urs3Ur8P5IzBeO9BTLVqFEjjoUgO3Sqv8OAAY6D9ynIEAco3/O3G+3ZsyeSDJcDRzLCHlCWjgOU5fHmAsCls3HjRlHGj+P517FUOYxchPNe8XaBGxzRBfX2ggULUsWKFcW/pEvLP4d08U6BG+bDhw9UpkwZMR/eL3RAVOIPaeJqENJI8XBZpEgRncTahmNC7nv37tHTp0/F4SICFCpUiIoXL54qgwxPDFlxg0MHiLS4BTFfWgDGh4dTPNhi37hk4MD4JXM62zp4bMUjHng5XaSsWbPayBQOOoTh4i0Ghg69pxagT7xHgTdv3rzC0fLly5dadsJDLvaO8+CPe0Kkwa9cuXKUlnkQmfBoCl1iz5AloyFNDpPRwvj5vQZc14B3GNdPyMvnlAa8wzh1HF4Y1zXgHcb1E/LyOaUB7zBOHYcXxnUNeIdx/YS8fE5pwDuMU8fhhXFdA95hXD8hL59TGvAO49RxeGFc14B3GNdPyMvnlAa8wzh1HF4Y1zXgHcb1E/LyOaUB7zBOHYcXxnUNeIdx/YS8fE5pwDuMU8fhhXFdA95hXD8hL59TGvAO49RxeGFc14B3GNdPyMvnlAa8wzh1HF4Y1zXwH71AxKzJv8eIAAAAAElFTkSuQmCC;" vertex="1" parent="1">
          <mxGeometry x="102.79" y="360" width="105.52" height="30" as="geometry" />
        </mxCell>
        <mxCell id="9ALV2XJM24fpJv_ytaoy-5" value="" style="shape=image;verticalLabelPosition=bottom;labelBackgroundColor=default;verticalAlign=top;aspect=fixed;imageAspect=0;image=data:image/png,iVBORw0KGgoAAAANSUhEUgAAAK4AAABACAYAAACDQkwcAAAMQGlDQ1BJQ0MgUHJvZmlsZQAASImVVwdYU8kWnluSkJDQAghICb0JIlICSAmhBZDebYQkQCgxBoKKHVlUcC2oWMCGrooodpodsbMo9r5YUFDWxYJdeZMCuu4r35vvmzv//efMf86cO/fOHQDUT3DF4hxUA4BcUb4kJtifkZScwiB1AwLQAlTgBdy5vDwxKyoqHMAy2P69vLsBEFl71UGm9c/+/1o0+YI8HgBIFMRp/DxeLsQHAcCreGJJPgBEGW8+NV8sw7ACbQkMEOKFMpyhwFUynKbAe+U2cTFsiFsBUKFyuZIMANQuQ55RwMuAGmp9EDuJ+EIRAOoMiH1ycyfzIU6F2AbaiCGW6TPTftDJ+Jtm2pAml5sxhBVzkReVAGGeOIc7/f9Mx/8uuTnSQR9WsFIzJSExsjnDvN3Knhwmw1SIe0VpEZEQa0H8QciX20OMUjKlIfEKe9SQl8eGOQO6EDvxuQFhEBtCHCTKiQhX8mnpwiAOxHCFoNOE+Zw4iPUgXijIC4xV2mySTI5R+kLr0yVslpI/x5XI/cp8PZBmx7OU+q8zBRylPqZWmBmXCDEFYosCYUIExGoQO+Zlx4YpbcYUZrIjBm0k0hhZ/BYQxwhEwf4KfawgXRIUo7Qvzc0bnC+2KVPIiVDi/fmZcSGK/GCtPK48fjgX7LJAxIof1BHkJYUPzoUvCAhUzB3rFojiY5U6H8T5/jGKsThFnBOltMfNBDnBMt4MYpe8gljlWDwhHy5IhT6eLs6PilPEiRdmcUOjFPHgy0A4YIMAwABSWNPAZJAFhO29Db3wTtETBLhAAjKAADgomcERifIeEbzGgkLwJ0QCkDc0zl/eKwAFkP86xCquDiBd3lsgH5ENnkKcC8JADryXykeJhrwlgCeQEf7DOxdWHow3B1ZZ/7/nB9nvDAsy4UpGOuiRoT5oSQwkBhBDiEFEW9wA98G98HB49YPVGWfiHoPz+G5PeEroIDwiXCd0Em5PEhZJfopyLOiE+kHKXKT9mAvcCmq64v64N1SHyrgubgAccBfoh4X7Qs+ukGUr45ZlhfGT9t9m8MPTUNqRncgoeRjZj2zz80g1OzXXIRVZrn/MjyLWtKF8s4d6fvbP/iH7fNiG/WyJLcQOYGexk9h57AjWABjYcawRa8OOyvDQ6noiX12D3mLk8WRDHeE//A0+WVkm85xqnXqcvij68gXTZN9owJ4sni4RZmTmM1hwRxAwOCKe4wiGs5OzCwCy/UXx+XoTLd83EN2279z8PwDwPj4wMHD4Oxd6HIB97vD1b/rO2TDh1qEKwLkmnlRSoOBw2YUAvxLq8E3TB8bAHNjA+TgDN7iP+YFAEAoiQRxIBhNh9JlwnUvAVDATzAMloAwsA6vAOrARbAE7wG6wHzSAI+AkOAMugsvgOrgLV08XeAH6wDvwGUEQEkJD6Ig+YoJYIvaIM8JEfJBAJByJQZKRVCQDESFSZCYyHylDypF1yGakBtmHNCEnkfNIB3IbeYj0IK+RTyiGUlFt1Ai1QkeiTJSFhqFx6AQ0A52CFqLF6BJ0DVqN7kLr0ZPoRfQ62om+QPsxgKliupgp5oAxMTYWiaVg6ZgEm42VYhVYNVaHNcPnfBXrxHqxjzgRp+MM3AGu4BA8HufhU/DZ+GJ8Hb4Dr8db8av4Q7wP/0agEQwJ9gRPAoeQRMggTCWUECoI2wiHCKfhu9RFeEckEnWJ1kR3+C4mE7OIM4iLieuJe4gniB3Ex8R+EomkT7IneZMiSVxSPqmEtJa0i3ScdIXURfqgoqpiouKsEqSSoiJSKVKpUNmpckzlisozlc9kDbIl2ZMcSeaTp5OXkreSm8mXyF3kzxRNijXFmxJHyaLMo6yh1FFOU+5R3qiqqpqpeqhGqwpV56quUd2rek71oepHqhbVjsqmjqdKqUuo26knqLepb2g0mhXNj5ZCy6ctodXQTtEe0D6o0dUc1ThqfLU5apVq9WpX1F6qk9Ut1VnqE9UL1SvUD6hfUu/VIGtYabA1uBqzNSo1mjRuavRr0jVHaUZq5mou1typeV6zW4ukZaUVqMXXKtbaonVK6zEdo5vT2XQefT59K/00vUubqG2tzdHO0i7T3q3drt2no6XjopOgM02nUueoTqcupmuly9HN0V2qu1/3hu6nYUbDWMMEwxYNqxt2Zdh7veF6fnoCvVK9PXrX9T7pM/QD9bP1l+s36N83wA3sDKINphpsMDht0Dtce7jXcN7w0uH7h98xRA3tDGMMZxhuMWwz7DcyNgo2EhutNTpl1Gusa+xnnGW80viYcY8J3cTHRGiy0uS4yXOGDoPFyGGsYbQy+kwNTUNMpaabTdtNP5tZm8WbFZntMbtvTjFnmqebrzRvMe+zMLEYazHTotbijiXZkmmZabna8qzleytrq0SrBVYNVt3WetYc60LrWut7NjQbX5spNtU212yJtkzbbNv1tpftUDtXu0y7SrtL9qi9m73Qfr19xwjCCI8RohHVI246UB1YDgUOtQ4PHXUdwx2LHBscX460GJkycvnIsyO/Obk65Thtdbo7SmtU6KiiUc2jXjvbOfOcK52vjaaNDho9Z3Tj6Fcu9i4Clw0ut1zprmNdF7i2uH51c3eTuNW59bhbuKe6V7nfZGozo5iLmec8CB7+HnM8jnh89HTzzPfc7/mXl4NXttdOr+4x1mMEY7aOeext5s313uzd6cPwSfXZ5NPpa+rL9a32feRn7sf32+b3jGXLymLtYr30d/KX+B/yf8/2ZM9inwjAAoIDSgPaA7UC4wPXBT4IMgvKCKoN6gt2DZ4RfCKEEBIWsjzkJseIw+PUcPpC3UNnhbaGUcNiw9aFPQq3C5eEN49Fx4aOXTH2XoRlhCiiIRJEciJXRN6Pso6aEnU4mhgdFV0Z/TRmVMzMmLOx9NhJsTtj38X5xy2NuxtvEy+Nb0lQTxifUJPwPjEgsTyxM2lk0qyki8kGycLkxhRSSkLKtpT+cYHjVo3rGu86vmT8jQnWE6ZNOD/RYGLOxKOT1CdxJx1IJaQmpu5M/cKN5FZz+9M4aVVpfTw2bzXvBd+Pv5LfI/AWlAuepXunl6d3Z3hnrMjoyfTNrMjsFbKF64SvskKyNma9z47M3p49kJOYsydXJTc1t0mkJcoWtU42njxtcofYXlwi7pziOWXVlD5JmGRbHpI3Ia8xXxv+yLdJbaS/SB8W+BRUFnyYmjD1wDTNaaJpbdPtpi+a/qwwqPC3GfgM3oyWmaYz5818OIs1a/NsZHba7JY55nOK53TNDZ67Yx5lXva834ucisqL3s5PnN9cbFQ8t/jxL8G/1JaolUhKbi7wWrBxIb5QuLB90ehFaxd9K+WXXihzKqso+7KYt/jCr6N+XfPrwJL0Je1L3ZZuWEZcJlp2Y7nv8h3lmuWF5Y9XjF1Rv5KxsnTl21WTVp2vcKnYuJqyWrq6c034msa1FmuXrf2yLnPd9Ur/yj1VhlWLqt6v56+/ssFvQ91Go41lGz9tEm66tTl4c321VXXFFuKWgi1PtyZsPfsb87eabQbbyrZ93S7a3rkjZkdrjXtNzU7DnUtr0Vppbc+u8bsu7w7Y3VjnULd5j+6esr1gr3Tv832p+27sD9vfcoB5oO6g5cGqQ/RDpfVI/fT6vobMhs7G5MaOptCmlmav5kOHHQ9vP2J6pPKoztGlxyjHio8NHC883n9CfKL3ZMbJxy2TWu6eSjp1rTW6tf102OlzZ4LOnDrLOnv8nPe5I+c9zzddYF5ouOh2sb7Nte3Q766/H2p3a6+/5H6p8bLH5eaOMR3HrvheOXk14OqZa5xrF69HXO+4EX/j1s3xNztv8W913865/epOwZ3Pd+feI9wrva9xv+KB4YPqP2z/2NPp1nn0YcDDtkexj+4+5j1+8STvyZeu4qe0pxXPTJ7VdDt3H+kJ6rn8fNzzrhfiF597S/7U/LPqpc3Lg3/5/dXWl9TX9UryauD14jf6b7a/dXnb0h/V/+Bd7rvP70s/6H/Y8ZH58eynxE/PPk/9Qvqy5qvt1+ZvYd/uDeQODIi5Eq78VwCDFU1PB+D1dgBoyQDQ4fmMMk5x/pMXRHFmlSPwn7DijCgvbgDUwf/36F74d3MTgL1b4fEL6quPByCKBkCcB0BHjx6qg2c1+blSVojwHLAp6mtabhr4N0Vx5vwh7p9bIFN1AT+3/wKkxnyhCYbjfQAAAIplWElmTU0AKgAAAAgABAEaAAUAAAABAAAAPgEbAAUAAAABAAAARgEoAAMAAAABAAIAAIdpAAQAAAABAAAATgAAAAAAAACQAAAAAQAAAJAAAAABAAOShgAHAAAAEgAAAHigAgAEAAAAAQAAAK6gAwAEAAAAAQAAAEAAAAAAQVNDSUkAAABTY3JlZW5zaG90U4O6+QAAAAlwSFlzAAAWJQAAFiUBSVIk8AAAAdVpVFh0WE1MOmNvbS5hZG9iZS54bXAAAAAAADx4OnhtcG1ldGEgeG1sbnM6eD0iYWRvYmU6bnM6bWV0YS8iIHg6eG1wdGs9IlhNUCBDb3JlIDYuMC4wIj4KICAgPHJkZjpSREYgeG1sbnM6cmRmPSJodHRwOi8vd3d3LnczLm9yZy8xOTk5LzAyLzIyLXJkZi1zeW50YXgtbnMjIj4KICAgICAgPHJkZjpEZXNjcmlwdGlvbiByZGY6YWJvdXQ9IiIKICAgICAgICAgICAgeG1sbnM6ZXhpZj0iaHR0cDovL25zLmFkb2JlLmNvbS9leGlmLzEuMC8iPgogICAgICAgICA8ZXhpZjpQaXhlbFlEaW1lbnNpb24+NjQ8L2V4aWY6UGl4ZWxZRGltZW5zaW9uPgogICAgICAgICA8ZXhpZjpQaXhlbFhEaW1lbnNpb24+MTc0PC9leGlmOlBpeGVsWERpbWVuc2lvbj4KICAgICAgICAgPGV4aWY6VXNlckNvbW1lbnQ+U2NyZWVuc2hvdDwvZXhpZjpVc2VyQ29tbWVudD4KICAgICAgPC9yZGY6RGVzY3JpcHRpb24+CiAgIDwvcmRmOlJERj4KPC94OnhtcG1ldGE+CqsVznIAAAAcaURPVAAAAAIAAAAAAAAAIAAAACgAAAAgAAAAIAAACXjZgmoPAAAJRElEQVR4Aexbd6gUPRCfp6Ko/9hAUVQUQbGgggVF7KhYULBiw16xd7FiFzv2BvaCir0r9t5FsWLvvXfP+eX7EpLdvXu3d6e8e2TgsZtkMplMfpmZZO8lBJjIkrVAnFkgwQI3zlbMqissYIFrgRCXFrDAjctls0pb4FoMxKUFLHDjctms0ha4FgNxaQEL3LhcNqu0Ba7FQFxawAI3LpfNKm2BmwQwgI+XHz9+pPfv31OmTJkobdq0SUCrpK2CBe4/Xp9jx47R6tWr6fXr1/TmzRt68eIFvXr1SmnRsWNH6t+/vyrbF28LWOB62+Wv1fbq1Ys2b94cVP6YMWOoSZMmQdttw38WsMD9x0jo3Lkz7d69O+io27ZtowIFCgRtj/eG79+/U+rUqaOehgVu1CaMTADy2SFDhhCAKil9+vR0/vx5SpkypaxKNs/Dhw/TyJEj6c6dO9SoUSMaN25cVHOzwI3KfNF1dnrfqlWr0rx586ITmgR7f/78mYoUKWJodvToUcqWLZtR56dggevHWjHk/fXrFxUvXpw+ffqkpA4dOpRatWqlysnl5eDBg9SmTRtjOpcvX6Z06dIZdX4KFrh+rBVD3mvXrlGtWrUMiZs2baLChQsbdcmhgLRg4cKFaiqFChUKeUBVjCFeLHBDGOdvNi1fvpyGDx9uDHHjxo1kmd9Wr16dbt26pebarl07GjRokCpH8mKBG4nVYtCnW7dutH37diWpUqVKhldSDXH+gvvqkiVLGrNAHo98PhqywI3GehH2/f37NxUrVszIb+GB4ImSG+3fv5/at29vTOv06dPiC6FR6bNggevTYLFg98pvN2zYQEWLFo2F+CQlY+LEicZNCe6o9SvASJWNCrjYTcePH6cPHz5Qvnz5qEGDBpQhQwZDF1yF7Nixgy5evEhfv34V7RUrVqSyZcsafHoB3+4RRs+cOUM/f/6knDlzEvKk3Llz62yEnBBfoTB+5syZqWDBgoSQ6/ce9NmzZ2Ie0BHeMEWKFJQlSxaCnjhIREKPHj2iAwcO0N27d8XvEPLkyUMVKlSg/Pnzk1d+e/36dUqVKpXnUOfOnaMTJ04IWbAzAF66dGlPXmflly9f6OXLl5QjRw4xL2d7YmV8MICHxC3AvXv3CLch+D0F5oE1zJo1qxIBO2KN9X8c7969O125ckXx1KxZk/r06aPKeMmVK5dv3SIG7oQJE2j+/PmGAigMGDCAOnToICY4c+ZMmjFjhosHFbgKGj9+vAC8zoBJ41s9PJCTUI9v+Tdv3qSxY8fSoUOHnCwid5o6dWqiVy0AKE7xc+fONQ4OToHlypWjvn37uu4hnXyyfPbsWWGXvXv3yirjibAJAOhfzwDoxYsXG3woAAT4BLxy5UpXW9OmTWnEiBEhN+nSpUvFpT86+82hkZuuXbtW6KX/lsKpCHRo0aKFmFPlypWdzWGVV61aRaVKlQqLVzJFBFwYHZfnIHiAJ0+eGPkaALts2TI6efKkHIdq1KghvKe+oPCS+MFJ3rx5FR8mgS9KIIQVhFWdcB+4Zs0aNR4usTFp/fs/TustW7bUuxnvV69eFYsOkOkEz44NBS956dIlvUmAJ5SXgyeaM2cOYdPohINJxowZDaDq7XgfOHCgKw9EPe51JWjhseHpdJ3xJap58+ZgdRF+wFOiRAmjPtzccufOncJ56HfM+KqHCIS7V9gHsiTNmjVLrG2PHj1kla8nHBAigh/yDVwsUPny5enp06dUpkwZWrJkCeErSOvWrT3HbdiwIXXt2lWEezDg059+yY5QDM+XkJBACGsABwyGO87p06fT+vXrhRf3Ej5p0iSqW7cuIY9asGCBYgnlXbCh4CV0ql27thgje/bsqhqpCk7+OiH0A9xOgt6YIy7aJWFeALJcECw2PnV6ea9169aJDSP74rllyxbq2bOnqIJ3xWbElZJ+91ulShXPqIdOW7duJR1IAN6FCxdChuQfP36ISAZPrRM2FhxBmjRpRDWcDyKfJOBg8uTJKm1EPSLnihUrjGgG27Vt21Z2E0+klnXq1DHqwirwAL6IFy/AHlL8cU4o+uIp6/QnA8tTNoPZ4D9y5Ijg4/RA1T948EDUMYBUnS6bvblo593qauc8ynNcXhAXL6cKAU4bPPnZ8xv8DHgXHy92gBfD4OOFCHBu7+LlS3iDT86H80iD99u3bwH+RCp4IUu2O+fKOabRTy8w2IyxoGMogg04JTL6cLQIcOQxuj1//tzgkXMwmP4vQHfZjienl15sEdVhZ/gi9kJCmWrVqql+HN4NBRNTkpNzg59DopAlAc27W8meNm2awQvZixYtUu28013t0NFJ/DtYFx9HCyebUcbm0A2Pd/5xjMHDnt7Fc/v2bYNHFt69e+fi5Uglm9WT0x7FxwcbVY+No+tTv3591eZ8Aeh0Xvb+ThajzGcRgx999bElM0cHF5+OBcnHqYqLjw/zsjnqpy/gwhNIY3AYV4P37t1b1aMdOy2YF0OnwYMHG/wAKh8GVB2fupVstMkxpWxOV1Q7QKy34116Y8nE4TngXMh69eoF+MZCsng+79+/75KtLyb/CNzVzodGT1mohN7Sk0qd+YDr4oducq6yUffCsq++BpIPT05LXHqdOnVKZzHeOdVz8XPeavDIwsaNG128XnPYt2+fi+/t27dSTNRPX8Dlg5JShg8JanAnKPiAotq8Xjp16qTkYBH4VB3QPSIMD0IYlosknwj3OnE+HBg2bFiA870AQA6DOWn06NEuOXzF5GRzlTmPd/XbtWuX4nOmEtDx4cOHqt35ottPzsepB+fLakzOx5WIPXv2qHrZN5hn9/KKXqkLhGMzOUM6Nhfs6kWIGnxGEbpg3eGpvRwA/z7B0DdY+uY1Rjh1voCLXItPkwE+hCiP6rW7AcJQhNxMGh9PABeG4qRfAFj25cOEwQdePqDI5rCejx8/dsnAeOEQ3526+spowHfIrrbGjRuHFMuHFVcfmb/qHWFfhFUdbF26dDH6wisHo379+hm8SMGCkdcZYtSoUcHYVb0e9VSl9uLcDAByLMkXcL0G9rO70d/LiwVbcGcagB0eKgXx0m/27NnGIgL88BLhEPJCfYPhHfMFTZkyxdWm595e8uX5QMqE5wqHEGJlH/nUvbFThp8I2KxZM5dsZxRwyk+s7KUvnFIs6Q8AAAD//5wllt0AAAlJSURBVO1aZchVTxOfx+5ARb8IFgYGtmAgtgiiYn0Q7AK7RUQUA2xBRewAA7EwQezA7sDu+qBY2HH/81veXXb37D3Pvfc8vvfLLlzO7tTOmTM7Ozt7M2LcKEIbP348bd++XUlo0KABbdq0SY3tzoEDB2jo0KEGuHPnzjRnzhwDhsHAgQPp8OHDCt6pUyeaN2+eGifSAc/169cN0v3791OlSpUMmGvQv39/Onr0qIFatWoVNWvWjFq2bEmPHz82cHv37qUqVaoYMDn4+/cv1axZk758+SJBNGHCBPGOChCns3PnTho7dqyBPXfuHBUvXtyAYfDs2TOhn47YsGEDNWrUSAeJ/ocPH6hOnToGPH/+/HTlyhXKnj27AU9mAJvBdnq7dOkSFSlSRAdF6mdEddz69evTu3fvlBKjR4+mIUOGqLHdmTZtGsGQeoMzwsH09ufPH6pYsaIOotmzZ1OXLl0MWNjg8+fPwll0GnyYq1evUrZs2XRwoP/792+qXbu24WggOn36NBUqVIiqV69u8GQm9/79+9S2bVuDZ9u2bVSrVi0D5hoMHz6c9u3bp1BhwWHXrl00ZswYRYvOtWvXqECBAgYMA7xLz549DTh0XLp0qQFLdoDvtGLFCsVWuXJlQ3+FiNKB46banj59GitXrpzxO3v2bKi4pk2bGvTgf/nyZYCHo2SAjiNcgC4M4NJv8ODBYSwKd/78+cD8vXv3FviHDx8GcLw7KF5Xh3ehAM/Pnz9dpAaMF3CMF4nBu379eoNGH0ycONGg7dixo442+hzJDVp8i9WrVxs0qQzat29vyJ0xY0YqYkJ5KBSbCXLHjh2Ggnjxr1+/xuXiqBOg57TBSc9bskFbr149J10Y8Pbt24YM6Ld8+fIwFoWbPn16gPfIkSMCz9teAMcRRvG6OsOGDTN45CIALRYC+KV8nd9ls7t37+okRr9hw4bGPHPnzlV4BBXMA/3ReOczaGEfTs0UfSodTj8CMg8ePBgQ9ebNm9jKlStjW7duDeASAURy3HHjxhlKdu3aNXTOWbNmGfQwFD6Mq/Xr18+g5e3PRRYKc330PXv2hPIA+eLFC2Nu6Il34/RB8LrknjhxIq5cV9RctmyZouf8VczXvXt3BZMdyMX8+k/qIWnk8/nz5wYdeI4dOybRMbnbzZw5U8A4rQjQx/seSojVsXXB4tN1Rf/t27cWVyw2adIkQZdKQIKwSI6LSXUl9dVta/r+/fvAlgfHdzUYQ5eLfior88ePHwE5GzdudE2pYHyIiiEa2vPzoUfRfPz4MYC/d++ewtudy5cvB+gvXrwoyPCuMhWYP3++zSqisK5L69atAzQS4Nr6oSsa9Jdy+HAqYIjAEiafiISJNkRuRHgEFdgNjfNbQ2aLFi0C4h48eKBoMtupAsz/A6TsuK78cerUqc55EHEGDBiglIWRsPr5UOekv3HjhkELemynqTR7i168eHGoGD4wBeZGSmQ36Wzyg0tnsOlgJ3v7Bs/3798F6YULF9R8t27dstlFxJRzyCfsaTcsAK7OKFmgRa4p29q1axXu06dPAgwd7PeQaYTki/fcvHmzkoe5ECTQ4MRSTzynTJliiOCqSgyLDzjY5du3bwY+0UHKjuvKb2GE169fB+ZGXqm/DOjCDlp27oXILld0QHgmgOPHjxtzQxZXG5xcrm150aJFTlou3xly7Q8EpidPnsTsXQl2wKKVbeTIkUKODpM4PF0HQdt2cFq59ep2lukV8Ih8wNmHSOySOg8CTJit4eyTJ082eLjEqVSWaY+UibOKbJCrB5Ldu3dLVNLPlB3Xzm+lolhNcrvBKkQuJ3F4wmmxdYY1Lv8YPDBGlMb1UkNejx49jAUGfV35N3LAeA089nvJQxMiIrZtO5rp9Eid9EUVVilA7qvz4uAonQspgCu1AX27du1EJFyyZIniR4TXGyKgvSNg55Q7AmjRR+6KioX+TujrOTRo7SAl0wgclPv06aP0gP/IdwBfsi3lOq5dv7VLcmXLlg0U6FGzXLhwIZUuXdomN8Z2cX/BggXUoUMHgyaZAeq5uPQ4deqUwVahQgViJwvoWbVqVUK9ObMaKzse9e3bNyCTdx1V/0V9F/qjZmrXryVjjRo1CDXdeEV/XAjY9WvIRdMvNFCTffXqFR06dEiKNp6wKzuWAcOAc07q1asX8WI0cNArd+7cxM5uwDHgCE68gKhkyZIGjp1c1Kv5oKjg+N76mBcUcT5PuXLlUjTJdlJyXM7bqHnz5sZcnGQLx3B9HDjxoEGDxCVDjhw5DD7XQL8xg3PhZs5VQHfxxoPx6haOAyfSP7ZOj1sk3sqocePGlJGRoaPi9uFUWBT2RwcDPhBuFvHhsEA4naAtW7YYskqVKkV8YKQyZcoYcHvA+S+NGDEisMhAV6xYMeJKAbVq1Yq4HCn0waLSG95tzZo1ce3IJ39x8eD6flIOFgvnzeLSIuzmkaMrcdQmzpclq3iCHzeAvOPFXaQGQ8ggJceFI+GD6I0PVJQvXz6C0jdv3iQurlPevHkJjsdbSqY3VbosGPHMmTMEZ+PcL0uvCiETEQYOxyduKlGiBGFh4Ve4cGFdjYT7cEpcK/O2TYjueG84vx2NIBC3jCdPnhR0BQsWFM4mo2ciE3K5ijh3Ji7ZiRs87ArQ3V5ofAATkRLRH4sDgSaz20LMD5vcuXOHHj16JHTMkycPFS1alLALueYJ05lTQnFrh2AFP6hWrRrhnbOipeS4WDW4P5cNq5nLVXLon94C/9wCSTsuJ9GEu3L9/wnYKkeNGvXPlfUTeAtICyTtuNhm27RpI/nFc926ddSkSRMD5gfeAv/SAkk7Lheeiet4hk7IF/GPKd+8Bf5fFkjKcZEmoPzDhXqlHxL2eOUXReQ73gJZbIGEHBc1N/xxmf9+6Cz74MSIEznqcny1SDlz5sxiNb04bwHTAgk5bvny5U2ukBFfUYZgPcpbIGsskJDjduvWjXAjgjotblJQD/z16xfxHbj4oWaLWmbdunXFjVPWqOaleAvEt0BCjhuf3WO8BdJjAe+46bG7nzWiBbzjRjSgZ0+PBbzjpsfuftaIFvCOG9GAnj09FvCOmx67+1kjWsA7bkQDevb0WMA7bnrs7meNaAHvuBEN6NnTYwHvuOmxu581ogW840Y0oGdPjwW846bH7n7WiBb4D0nkNYcjpjzkAAAAAElFTkSuQmCC;" vertex="1" parent="1">
          <mxGeometry x="30" y="275" width="81.56" height="30" as="geometry" />
        </mxCell>
        <mxCell id="9ALV2XJM24fpJv_ytaoy-6" value="" style="shape=image;verticalLabelPosition=bottom;labelBackgroundColor=default;verticalAlign=top;aspect=fixed;imageAspect=0;image=data:image/png,iVBORw0KGgoAAAANSUhEUgAAAEAAAAA8CAYAAADWibxkAAAMQGlDQ1BJQ0MgUHJvZmlsZQAASImVVwdYU8kWnluSkJDQAghICb0JIlICSAmhBZDebYQkQCgxBoKKHVlUcC2oWMCGrooodpodsbMo9r5YUFDWxYJdeZMCuu4r35vvmzv//efMf86cO/fOHQDUT3DF4hxUA4BcUb4kJtifkZScwiB1AwLQAlTgBdy5vDwxKyoqHMAy2P69vLsBEFl71UGm9c/+/1o0+YI8HgBIFMRp/DxeLsQHAcCreGJJPgBEGW8+NV8sw7ACbQkMEOKFMpyhwFUynKbAe+U2cTFsiFsBUKFyuZIMANQuQ55RwMuAGmp9EDuJ+EIRAOoMiH1ycyfzIU6F2AbaiCGW6TPTftDJ+Jtm2pAml5sxhBVzkReVAGGeOIc7/f9Mx/8uuTnSQR9WsFIzJSExsjnDvN3Knhwmw1SIe0VpEZEQa0H8QciX20OMUjKlIfEKe9SQl8eGOQO6EDvxuQFhEBtCHCTKiQhX8mnpwiAOxHCFoNOE+Zw4iPUgXijIC4xV2mySTI5R+kLr0yVslpI/x5XI/cp8PZBmx7OU+q8zBRylPqZWmBmXCDEFYosCYUIExGoQO+Zlx4YpbcYUZrIjBm0k0hhZ/BYQxwhEwf4KfawgXRIUo7Qvzc0bnC+2KVPIiVDi/fmZcSGK/GCtPK48fjgX7LJAxIof1BHkJYUPzoUvCAhUzB3rFojiY5U6H8T5/jGKsThFnBOltMfNBDnBMt4MYpe8gljlWDwhHy5IhT6eLs6PilPEiRdmcUOjFPHgy0A4YIMAwABSWNPAZJAFhO29Db3wTtETBLhAAjKAADgomcERifIeEbzGgkLwJ0QCkDc0zl/eKwAFkP86xCquDiBd3lsgH5ENnkKcC8JADryXykeJhrwlgCeQEf7DOxdWHow3B1ZZ/7/nB9nvDAsy4UpGOuiRoT5oSQwkBhBDiEFEW9wA98G98HB49YPVGWfiHoPz+G5PeEroIDwiXCd0Em5PEhZJfopyLOiE+kHKXKT9mAvcCmq64v64N1SHyrgubgAccBfoh4X7Qs+ukGUr45ZlhfGT9t9m8MPTUNqRncgoeRjZj2zz80g1OzXXIRVZrn/MjyLWtKF8s4d6fvbP/iH7fNiG/WyJLcQOYGexk9h57AjWABjYcawRa8OOyvDQ6noiX12D3mLk8WRDHeE//A0+WVkm85xqnXqcvij68gXTZN9owJ4sni4RZmTmM1hwRxAwOCKe4wiGs5OzCwCy/UXx+XoTLd83EN2279z8PwDwPj4wMHD4Oxd6HIB97vD1b/rO2TDh1qEKwLkmnlRSoOBw2YUAvxLq8E3TB8bAHNjA+TgDN7iP+YFAEAoiQRxIBhNh9JlwnUvAVDATzAMloAwsA6vAOrARbAE7wG6wHzSAI+AkOAMugsvgOrgLV08XeAH6wDvwGUEQEkJD6Ig+YoJYIvaIM8JEfJBAJByJQZKRVCQDESFSZCYyHylDypF1yGakBtmHNCEnkfNIB3IbeYj0IK+RTyiGUlFt1Ai1QkeiTJSFhqFx6AQ0A52CFqLF6BJ0DVqN7kLr0ZPoRfQ62om+QPsxgKliupgp5oAxMTYWiaVg6ZgEm42VYhVYNVaHNcPnfBXrxHqxjzgRp+MM3AGu4BA8HufhU/DZ+GJ8Hb4Dr8db8av4Q7wP/0agEQwJ9gRPAoeQRMggTCWUECoI2wiHCKfhu9RFeEckEnWJ1kR3+C4mE7OIM4iLieuJe4gniB3Ex8R+EomkT7IneZMiSVxSPqmEtJa0i3ScdIXURfqgoqpiouKsEqSSoiJSKVKpUNmpckzlisozlc9kDbIl2ZMcSeaTp5OXkreSm8mXyF3kzxRNijXFmxJHyaLMo6yh1FFOU+5R3qiqqpqpeqhGqwpV56quUd2rek71oepHqhbVjsqmjqdKqUuo26knqLepb2g0mhXNj5ZCy6ctodXQTtEe0D6o0dUc1ThqfLU5apVq9WpX1F6qk9Ut1VnqE9UL1SvUD6hfUu/VIGtYabA1uBqzNSo1mjRuavRr0jVHaUZq5mou1typeV6zW4ukZaUVqMXXKtbaonVK6zEdo5vT2XQefT59K/00vUubqG2tzdHO0i7T3q3drt2no6XjopOgM02nUueoTqcupmuly9HN0V2qu1/3hu6nYUbDWMMEwxYNqxt2Zdh7veF6fnoCvVK9PXrX9T7pM/QD9bP1l+s36N83wA3sDKINphpsMDht0Dtce7jXcN7w0uH7h98xRA3tDGMMZxhuMWwz7DcyNgo2EhutNTpl1Gusa+xnnGW80viYcY8J3cTHRGiy0uS4yXOGDoPFyGGsYbQy+kwNTUNMpaabTdtNP5tZm8WbFZntMbtvTjFnmqebrzRvMe+zMLEYazHTotbijiXZkmmZabna8qzleytrq0SrBVYNVt3WetYc60LrWut7NjQbX5spNtU212yJtkzbbNv1tpftUDtXu0y7SrtL9qi9m73Qfr19xwjCCI8RohHVI246UB1YDgUOtQ4PHXUdwx2LHBscX460GJkycvnIsyO/Obk65Thtdbo7SmtU6KiiUc2jXjvbOfOcK52vjaaNDho9Z3Tj6Fcu9i4Clw0ut1zprmNdF7i2uH51c3eTuNW59bhbuKe6V7nfZGozo5iLmec8CB7+HnM8jnh89HTzzPfc7/mXl4NXttdOr+4x1mMEY7aOeext5s313uzd6cPwSfXZ5NPpa+rL9a32feRn7sf32+b3jGXLymLtYr30d/KX+B/yf8/2ZM9inwjAAoIDSgPaA7UC4wPXBT4IMgvKCKoN6gt2DZ4RfCKEEBIWsjzkJseIw+PUcPpC3UNnhbaGUcNiw9aFPQq3C5eEN49Fx4aOXTH2XoRlhCiiIRJEciJXRN6Pso6aEnU4mhgdFV0Z/TRmVMzMmLOx9NhJsTtj38X5xy2NuxtvEy+Nb0lQTxifUJPwPjEgsTyxM2lk0qyki8kGycLkxhRSSkLKtpT+cYHjVo3rGu86vmT8jQnWE6ZNOD/RYGLOxKOT1CdxJx1IJaQmpu5M/cKN5FZz+9M4aVVpfTw2bzXvBd+Pv5LfI/AWlAuepXunl6d3Z3hnrMjoyfTNrMjsFbKF64SvskKyNma9z47M3p49kJOYsydXJTc1t0mkJcoWtU42njxtcofYXlwi7pziOWXVlD5JmGRbHpI3Ia8xXxv+yLdJbaS/SB8W+BRUFnyYmjD1wDTNaaJpbdPtpi+a/qwwqPC3GfgM3oyWmaYz5818OIs1a/NsZHba7JY55nOK53TNDZ67Yx5lXva834ucisqL3s5PnN9cbFQ8t/jxL8G/1JaolUhKbi7wWrBxIb5QuLB90ehFaxd9K+WXXihzKqso+7KYt/jCr6N+XfPrwJL0Je1L3ZZuWEZcJlp2Y7nv8h3lmuWF5Y9XjF1Rv5KxsnTl21WTVp2vcKnYuJqyWrq6c034msa1FmuXrf2yLnPd9Ur/yj1VhlWLqt6v56+/ssFvQ91Go41lGz9tEm66tTl4c321VXXFFuKWgi1PtyZsPfsb87eabQbbyrZ93S7a3rkjZkdrjXtNzU7DnUtr0Vppbc+u8bsu7w7Y3VjnULd5j+6esr1gr3Tv832p+27sD9vfcoB5oO6g5cGqQ/RDpfVI/fT6vobMhs7G5MaOptCmlmav5kOHHQ9vP2J6pPKoztGlxyjHio8NHC883n9CfKL3ZMbJxy2TWu6eSjp1rTW6tf102OlzZ4LOnDrLOnv8nPe5I+c9zzddYF5ouOh2sb7Nte3Q766/H2p3a6+/5H6p8bLH5eaOMR3HrvheOXk14OqZa5xrF69HXO+4EX/j1s3xNztv8W913865/epOwZ3Pd+feI9wrva9xv+KB4YPqP2z/2NPp1nn0YcDDtkexj+4+5j1+8STvyZeu4qe0pxXPTJ7VdDt3H+kJ6rn8fNzzrhfiF597S/7U/LPqpc3Lg3/5/dXWl9TX9UryauD14jf6b7a/dXnb0h/V/+Bd7rvP70s/6H/Y8ZH58eynxE/PPk/9Qvqy5qvt1+ZvYd/uDeQODIi5Eq78VwCDFU1PB+D1dgBoyQDQ4fmMMk5x/pMXRHFmlSPwn7DijCgvbgDUwf/36F74d3MTgL1b4fEL6quPByCKBkCcB0BHjx6qg2c1+blSVojwHLAp6mtabhr4N0Vx5vwh7p9bIFN1AT+3/wKkxnyhCYbjfQAAAIplWElmTU0AKgAAAAgABAEaAAUAAAABAAAAPgEbAAUAAAABAAAARgEoAAMAAAABAAIAAIdpAAQAAAABAAAATgAAAAAAAACQAAAAAQAAAJAAAAABAAOShgAHAAAAEgAAAHigAgAEAAAAAQAAAECgAwAEAAAAAQAAADwAAAAAQVNDSUkAAABTY3JlZW5zaG90OoSnvgAAAAlwSFlzAAAWJQAAFiUBSVIk8AAAAdRpVFh0WE1MOmNvbS5hZG9iZS54bXAAAAAAADx4OnhtcG1ldGEgeG1sbnM6eD0iYWRvYmU6bnM6bWV0YS8iIHg6eG1wdGs9IlhNUCBDb3JlIDYuMC4wIj4KICAgPHJkZjpSREYgeG1sbnM6cmRmPSJodHRwOi8vd3d3LnczLm9yZy8xOTk5LzAyLzIyLXJkZi1zeW50YXgtbnMjIj4KICAgICAgPHJkZjpEZXNjcmlwdGlvbiByZGY6YWJvdXQ9IiIKICAgICAgICAgICAgeG1sbnM6ZXhpZj0iaHR0cDovL25zLmFkb2JlLmNvbS9leGlmLzEuMC8iPgogICAgICAgICA8ZXhpZjpQaXhlbFlEaW1lbnNpb24+NjA8L2V4aWY6UGl4ZWxZRGltZW5zaW9uPgogICAgICAgICA8ZXhpZjpQaXhlbFhEaW1lbnNpb24+NjQ8L2V4aWY6UGl4ZWxYRGltZW5zaW9uPgogICAgICAgICA8ZXhpZjpVc2VyQ29tbWVudD5TY3JlZW5zaG90PC9leGlmOlVzZXJDb21tZW50PgogICAgICA8L3JkZjpEZXNjcmlwdGlvbj4KICAgPC9yZGY6UkRGPgo8L3g6eG1wbWV0YT4KBHQvPAAAABxpRE9UAAAAAgAAAAAAAAAeAAAAKAAAAB4AAAAeAAACSnKVrPIAAAIWSURBVGgF7Fc/qIFRFD8mSUaTQZksFqVksclCym6WVf4sikUmm0JWixJWSjYMkkUpEwsTBqHovHu+8vVueO97Hs8r99bX1z3fveee87vn/H59KmQD3nioBACiAkQLCA54Yw4EQYJCBYQKCBUQKiBU4I0REDIoZFDIoJBBIYNvLALiZ0ixDDYaDdjv9+D1ekGj0by8aNbrNVSrVTAYDOB2u++Ph2Twu7HZbNBkMkmPzWbDSqWCx+Pxu21P+U7nlstltFgsckyHw+HusxRVAAMArFYrh7LZbIZEIgF2u52zP3PS7XYhmUzCdDrljhmPx6BWqzmb0sndAJwPcLlcEI/HwWg0nk0Pf8/nc0in09BsNq/6/lMASqWSdAOZTIYLJhgMAj06nY6z/2ay3W6hUChALpeT3Wi1WohGo6DX6yEUCkn23wAASpqHEY7cb6wMpS3L5RJjsZhsJ46gvnwEP5xOJ6zVakh8c+YeeqdSKVytVtL57XZb/sbIWUkaV9f8GIBer8c5Go1G6Pf75WAoUI/Hg4PBgFundDIcDtHn83H+AoEATiYTzkWn05HXvBQAiopurF6vX9xYOBzGxWLBBX5rQusikYicFAHpdDqx1Wpd3fIyAPr9/tWAyMh6FrPZLJcEJVIsFvGWVO12O8zn8xd7WO/jVzf7LwE4IzObzZARIpcU3SYF/XkwVkeHw8GtoypQUjWPAuADAAD//4H25pkAAAK/SURBVO1XPWgqQRCeYJEiWEkgdVpJY7QJQjrLkMYqZRBstFFBq0gQgpUSSBTSBSsJghYmQhBtNEFQSKHYRBQFFRQNxB/QzHN8eNzlfO+dGvEe3ILc7OzM7My3OzMroIDR6XRwf39/+nt9fRWg8VsklUqhTqdjdMmGwWDAp6cnPDs74/BPT08xl8sJtp1IJBj9wWAgWO+7IHxnzJsvCwDZGo1GGAgE8ODggHF4BiZ9NRoNhkIhHI/H87b+I++/AWAWAQXJDnxGR6PRmchC30gkwtgT9Q0olUp4fn7OODsLnP01Go1YqVQWAkD0N+Dj4wPdbjcncEqDYDCI/X4f7+/veWnh8Xjw8/NTEBCiBYBy/uHhYZrb7FN2uVxItYQ92u02Op1ODkhUE+h6f319sUV5tCgByGazSNWcHThV+2KxyAuAzSgUCryuoNfr8e3tjS3GoTcGwMvLC8cRmtTrdbRYLJzAj46O8PHxkSf7N0YsFkPSYwNot9ux2Wzy1EQBQK/Xw5ubG47D5Pz19TXS2jKD6oPP5+PZvLu7w+FwyJjcGADpdHqan3S630/LbDZjtVplnFyFmHerjo+P8fn5eWo2Ho8zIK3SBrfIGvxjdLtdUKlUUymr1QrJZBIymQyjpVQq4eLiAg4PDxneTxGT1yFcXl7CpB4wJrVaLajVavB6vVNePp+H7e1tZn0RYmEA2MYVCgU4HA44OTkBmUzGXvpRetIRIBwOw9XVFbRaLZ7tjQBgMplg8q6HnZ0dnkPrYkzeCOD3++H29pazxSoACPovQAVtVpltNhvWarVV0ntl3XK5jPR6JJ/ocUVvj2WHoBQguBuNBoEFe3t7HPQ3OXl/fwe5XA67u7tLuyEYgKV3ELmiBADljsgPaa3uSTdAugFSCkg1QCqCay2zIjcudQGpC0hdQOoCUhcQeaFeq3u/APpH3gKXiCMqAAAAAElFTkSuQmCC;" vertex="1" parent="1">
          <mxGeometry x="132.51" y="190" width="42.67" height="40" as="geometry" />
        </mxCell>
        <mxCell id="9ALV2XJM24fpJv_ytaoy-7" value="" style="shape=image;verticalLabelPosition=bottom;labelBackgroundColor=default;verticalAlign=top;aspect=fixed;imageAspect=0;image=data:image/png,iVBORw0KGgoAAAANSUhEUgAAASAAAABKCAYAAAAbm4kIAAAMQGlDQ1BJQ0MgUHJvZmlsZQAASImVVwdYU8kWnluSkJDQAghICb0JIlICSAmhBZDebYQkQCgxBoKKHVlUcC2oWMCGrooodpodsbMo9r5YUFDWxYJdeZMCuu4r35vvmzv//efMf86cO/fOHQDUT3DF4hxUA4BcUb4kJtifkZScwiB1AwLQAlTgBdy5vDwxKyoqHMAy2P69vLsBEFl71UGm9c/+/1o0+YI8HgBIFMRp/DxeLsQHAcCreGJJPgBEGW8+NV8sw7ACbQkMEOKFMpyhwFUynKbAe+U2cTFsiFsBUKFyuZIMANQuQ55RwMuAGmp9EDuJ+EIRAOoMiH1ycyfzIU6F2AbaiCGW6TPTftDJ+Jtm2pAml5sxhBVzkReVAGGeOIc7/f9Mx/8uuTnSQR9WsFIzJSExsjnDvN3Knhwmw1SIe0VpEZEQa0H8QciX20OMUjKlIfEKe9SQl8eGOQO6EDvxuQFhEBtCHCTKiQhX8mnpwiAOxHCFoNOE+Zw4iPUgXijIC4xV2mySTI5R+kLr0yVslpI/x5XI/cp8PZBmx7OU+q8zBRylPqZWmBmXCDEFYosCYUIExGoQO+Zlx4YpbcYUZrIjBm0k0hhZ/BYQxwhEwf4KfawgXRIUo7Qvzc0bnC+2KVPIiVDi/fmZcSGK/GCtPK48fjgX7LJAxIof1BHkJYUPzoUvCAhUzB3rFojiY5U6H8T5/jGKsThFnBOltMfNBDnBMt4MYpe8gljlWDwhHy5IhT6eLs6PilPEiRdmcUOjFPHgy0A4YIMAwABSWNPAZJAFhO29Db3wTtETBLhAAjKAADgomcERifIeEbzGgkLwJ0QCkDc0zl/eKwAFkP86xCquDiBd3lsgH5ENnkKcC8JADryXykeJhrwlgCeQEf7DOxdWHow3B1ZZ/7/nB9nvDAsy4UpGOuiRoT5oSQwkBhBDiEFEW9wA98G98HB49YPVGWfiHoPz+G5PeEroIDwiXCd0Em5PEhZJfopyLOiE+kHKXKT9mAvcCmq64v64N1SHyrgubgAccBfoh4X7Qs+ukGUr45ZlhfGT9t9m8MPTUNqRncgoeRjZj2zz80g1OzXXIRVZrn/MjyLWtKF8s4d6fvbP/iH7fNiG/WyJLcQOYGexk9h57AjWABjYcawRa8OOyvDQ6noiX12D3mLk8WRDHeE//A0+WVkm85xqnXqcvij68gXTZN9owJ4sni4RZmTmM1hwRxAwOCKe4wiGs5OzCwCy/UXx+XoTLd83EN2279z8PwDwPj4wMHD4Oxd6HIB97vD1b/rO2TDh1qEKwLkmnlRSoOBw2YUAvxLq8E3TB8bAHNjA+TgDN7iP+YFAEAoiQRxIBhNh9JlwnUvAVDATzAMloAwsA6vAOrARbAE7wG6wHzSAI+AkOAMugsvgOrgLV08XeAH6wDvwGUEQEkJD6Ig+YoJYIvaIM8JEfJBAJByJQZKRVCQDESFSZCYyHylDypF1yGakBtmHNCEnkfNIB3IbeYj0IK+RTyiGUlFt1Ai1QkeiTJSFhqFx6AQ0A52CFqLF6BJ0DVqN7kLr0ZPoRfQ62om+QPsxgKliupgp5oAxMTYWiaVg6ZgEm42VYhVYNVaHNcPnfBXrxHqxjzgRp+MM3AGu4BA8HufhU/DZ+GJ8Hb4Dr8db8av4Q7wP/0agEQwJ9gRPAoeQRMggTCWUECoI2wiHCKfhu9RFeEckEnWJ1kR3+C4mE7OIM4iLieuJe4gniB3Ex8R+EomkT7IneZMiSVxSPqmEtJa0i3ScdIXURfqgoqpiouKsEqSSoiJSKVKpUNmpckzlisozlc9kDbIl2ZMcSeaTp5OXkreSm8mXyF3kzxRNijXFmxJHyaLMo6yh1FFOU+5R3qiqqpqpeqhGqwpV56quUd2rek71oepHqhbVjsqmjqdKqUuo26knqLepb2g0mhXNj5ZCy6ctodXQTtEe0D6o0dUc1ThqfLU5apVq9WpX1F6qk9Ut1VnqE9UL1SvUD6hfUu/VIGtYabA1uBqzNSo1mjRuavRr0jVHaUZq5mou1typeV6zW4ukZaUVqMXXKtbaonVK6zEdo5vT2XQefT59K/00vUubqG2tzdHO0i7T3q3drt2no6XjopOgM02nUueoTqcupmuly9HN0V2qu1/3hu6nYUbDWMMEwxYNqxt2Zdh7veF6fnoCvVK9PXrX9T7pM/QD9bP1l+s36N83wA3sDKINphpsMDht0Dtce7jXcN7w0uH7h98xRA3tDGMMZxhuMWwz7DcyNgo2EhutNTpl1Gusa+xnnGW80viYcY8J3cTHRGiy0uS4yXOGDoPFyGGsYbQy+kwNTUNMpaabTdtNP5tZm8WbFZntMbtvTjFnmqebrzRvMe+zMLEYazHTotbijiXZkmmZabna8qzleytrq0SrBVYNVt3WetYc60LrWut7NjQbX5spNtU212yJtkzbbNv1tpftUDtXu0y7SrtL9qi9m73Qfr19xwjCCI8RohHVI246UB1YDgUOtQ4PHXUdwx2LHBscX460GJkycvnIsyO/Obk65Thtdbo7SmtU6KiiUc2jXjvbOfOcK52vjaaNDho9Z3Tj6Fcu9i4Clw0ut1zprmNdF7i2uH51c3eTuNW59bhbuKe6V7nfZGozo5iLmec8CB7+HnM8jnh89HTzzPfc7/mXl4NXttdOr+4x1mMEY7aOeext5s313uzd6cPwSfXZ5NPpa+rL9a32feRn7sf32+b3jGXLymLtYr30d/KX+B/yf8/2ZM9inwjAAoIDSgPaA7UC4wPXBT4IMgvKCKoN6gt2DZ4RfCKEEBIWsjzkJseIw+PUcPpC3UNnhbaGUcNiw9aFPQq3C5eEN49Fx4aOXTH2XoRlhCiiIRJEciJXRN6Pso6aEnU4mhgdFV0Z/TRmVMzMmLOx9NhJsTtj38X5xy2NuxtvEy+Nb0lQTxifUJPwPjEgsTyxM2lk0qyki8kGycLkxhRSSkLKtpT+cYHjVo3rGu86vmT8jQnWE6ZNOD/RYGLOxKOT1CdxJx1IJaQmpu5M/cKN5FZz+9M4aVVpfTw2bzXvBd+Pv5LfI/AWlAuepXunl6d3Z3hnrMjoyfTNrMjsFbKF64SvskKyNma9z47M3p49kJOYsydXJTc1t0mkJcoWtU42njxtcofYXlwi7pziOWXVlD5JmGRbHpI3Ia8xXxv+yLdJbaS/SB8W+BRUFnyYmjD1wDTNaaJpbdPtpi+a/qwwqPC3GfgM3oyWmaYz5818OIs1a/NsZHba7JY55nOK53TNDZ67Yx5lXva834ucisqL3s5PnN9cbFQ8t/jxL8G/1JaolUhKbi7wWrBxIb5QuLB90ehFaxd9K+WXXihzKqso+7KYt/jCr6N+XfPrwJL0Je1L3ZZuWEZcJlp2Y7nv8h3lmuWF5Y9XjF1Rv5KxsnTl21WTVp2vcKnYuJqyWrq6c034msa1FmuXrf2yLnPd9Ur/yj1VhlWLqt6v56+/ssFvQ91Go41lGz9tEm66tTl4c321VXXFFuKWgi1PtyZsPfsb87eabQbbyrZ93S7a3rkjZkdrjXtNzU7DnUtr0Vppbc+u8bsu7w7Y3VjnULd5j+6esr1gr3Tv832p+27sD9vfcoB5oO6g5cGqQ/RDpfVI/fT6vobMhs7G5MaOptCmlmav5kOHHQ9vP2J6pPKoztGlxyjHio8NHC883n9CfKL3ZMbJxy2TWu6eSjp1rTW6tf102OlzZ4LOnDrLOnv8nPe5I+c9zzddYF5ouOh2sb7Nte3Q766/H2p3a6+/5H6p8bLH5eaOMR3HrvheOXk14OqZa5xrF69HXO+4EX/j1s3xNztv8W913865/epOwZ3Pd+feI9wrva9xv+KB4YPqP2z/2NPp1nn0YcDDtkexj+4+5j1+8STvyZeu4qe0pxXPTJ7VdDt3H+kJ6rn8fNzzrhfiF597S/7U/LPqpc3Lg3/5/dXWl9TX9UryauD14jf6b7a/dXnb0h/V/+Bd7rvP70s/6H/Y8ZH58eynxE/PPk/9Qvqy5qvt1+ZvYd/uDeQODIi5Eq78VwCDFU1PB+D1dgBoyQDQ4fmMMk5x/pMXRHFmlSPwn7DijCgvbgDUwf/36F74d3MTgL1b4fEL6quPByCKBkCcB0BHjx6qg2c1+blSVojwHLAp6mtabhr4N0Vx5vwh7p9bIFN1AT+3/wKkxnyhCYbjfQAAAIplWElmTU0AKgAAAAgABAEaAAUAAAABAAAAPgEbAAUAAAABAAAARgEoAAMAAAABAAIAAIdpAAQAAAABAAAATgAAAAAAAACQAAAAAQAAAJAAAAABAAOShgAHAAAAEgAAAHigAgAEAAAAAQAAASCgAwAEAAAAAQAAAEoAAAAAQVNDSUkAAABTY3JlZW5zaG90Pw8NTgAAAAlwSFlzAAAWJQAAFiUBSVIk8AAAAdVpVFh0WE1MOmNvbS5hZG9iZS54bXAAAAAAADx4OnhtcG1ldGEgeG1sbnM6eD0iYWRvYmU6bnM6bWV0YS8iIHg6eG1wdGs9IlhNUCBDb3JlIDYuMC4wIj4KICAgPHJkZjpSREYgeG1sbnM6cmRmPSJodHRwOi8vd3d3LnczLm9yZy8xOTk5LzAyLzIyLXJkZi1zeW50YXgtbnMjIj4KICAgICAgPHJkZjpEZXNjcmlwdGlvbiByZGY6YWJvdXQ9IiIKICAgICAgICAgICAgeG1sbnM6ZXhpZj0iaHR0cDovL25zLmFkb2JlLmNvbS9leGlmLzEuMC8iPgogICAgICAgICA8ZXhpZjpQaXhlbFlEaW1lbnNpb24+NzQ8L2V4aWY6UGl4ZWxZRGltZW5zaW9uPgogICAgICAgICA8ZXhpZjpQaXhlbFhEaW1lbnNpb24+Mjg4PC9leGlmOlBpeGVsWERpbWVuc2lvbj4KICAgICAgICAgPGV4aWY6VXNlckNvbW1lbnQ+U2NyZWVuc2hvdDwvZXhpZjpVc2VyQ29tbWVudD4KICAgICAgPC9yZGY6RGVzY3JpcHRpb24+CiAgIDwvcmRmOlJERj4KPC94OnhtcG1ldGE+Cv4hQCwAAAAcaURPVAAAAAIAAAAAAAAAJQAAACgAAAAlAAAAJQAAC4QpZpAJAAALUElEQVR4AexcdcgVTxeeV2xRxEAFW/8QEwtFDERRsUFFDEQsRCwQRUQMbDGw29fuROxO7O7u7u79zjMww+zcvffuvvf63Z9yDrzu7syJ2WdnzpyZM9ckh0gwMQKMACOQAASS2AElAHU2yQgwAhIBdkDcERgBRiBhCLADShj0bJgRYATYAXEfYAQYgYQhwA4oYdCzYUaAEWAHxH2AEWAEEoYAO6CEQc+GGQFGgB0Q9wFGgBFIGALsgBIGPRtmBBgBdkDcBxgBRiBhCLADShj0bJgRYATYAXEfYAQYgYQhwA4oYdCzYUaAEWAHxH2AEWAEEoYAO6CEQc+GGQFGgB0Q9wFGgBFIGALsgBIGPRtmBBgBdkDcBxgBRiBhCPwxB/Tr1y/x/Plz8ePHD2H+r6/mvddbZ82aVeCPiRFgBP59BOLqgOB0tm7dKlavXi0OHTqUIvQyZcokdu7cKXLlypUieRZiBBiBvweBuDmgw4cPi5EjR4qrV6/G/PbJycmievXqMethBYwAI/DfRiBmB4Ql1bhx48TMmTPj9qZHjhzhCChuaLIiRuC/i0BMDujnz59i4MCBcsllvyKWUsWKFROvX78Wd+7csatF9uzZReXKlXV5UlKSyJAhg2jRooUoX768LucbRoAR+HcRiMkBjRgxQsyfP9+FTr169UTfvn1F/vz5RapUqWTdpUuXRK9evVyOCEssLLUiEZZzZ8+eFW/evJF/cGafPn2SERcc3N9I27ZtE0+fPhVv376VzhnvBkfcpk2bv/F1uM2MQEwIpNgBnT59WkYrpvVhw4aJ1q1bm0X6/syZM6J58+b6GTcXLlwQGTNmdJWZDx06dBD79+83i+Q9HFOaNGlCysMVXLx4Uaxbt06UKFFCNGvWLBzbHy+/efOmqFu3boidbt26iT59+oSUc8G/gcCXL1/E+PHjxf3798Xs2bN9vxT6+cGDBwW2JDBh5c6dW46vatWq+dIRqzwm/KNHj4oTJ07IQABBRenSpUWTJk1Ejhw5fLUhGlOKHNC3b99EgwYNXBENHA8cUCQqUqSIq3r37t2iYMGCrjLzARm1u3fvirVr12pblSpVEsuWLTPZIt7jo9esWVPz7N27V0ZnuiBONzhysGXLFpEvXz5Rq1YtT60vX74U69evFy9evBDz5s3TPHPnznW1UVfwzV+LAPZGnzx5IjZs2CAWLFggXr16Jbcdjh8/HvWdkE2ePHmymDp1qubFlgV0gMqWLSsmTpwo+5pmMG5ilYcqBBjt27eXKw48Fy1aVGACBWH1MXjw4PhM5gRUYCJwnMKFC+u/ihUrOu/evYuqp1SpUloG8qdOnYoqA4YBAwZoOdgOQuSstCxskhMIIu6blyIrbefjx48R5WjZpXnRJjwz/RsI0ATjNGrUyPV91VjBOPFD/fv31/LDhw93Pn/+LMXoeIqjxlD9+vV1ua0zVvkDBw5o+507d3YoEpIm0A6K1HXdvn37bNOBn3FIMBDRwUINggJ2yZIlUXXQhrVuuJKjvaGocmCoUaOGlqWQ0JeMYrpy5YpsLz4+LcNUcVyvjx8/1u3Du+FdI9GuXbs0Pzor07+DwLRp0+S3haPo2LGj/FP93Y8D2rx5s+4b7dq1CwGGIipdTwmgkPpY5X///q3HG8YdLR9dNtC3lYPF+9DS0FUf9CGwA6IDhhoABayfqOLatWshcs+ePYvaXtqwdcmp2SCqoMEA0KI5BYM98C1mPYUFOl00ovNSmn/MmDHR2Lk+TgjQ8sfp3r27Q/uKDi1T4qTVrQb90xyUe/bs0d86mgOCnIpw0J+8Jkz0Y5Pnw4cPugGxykMRJnjVl2fMmKF1mzfLly/XPAsXLjSrAt8HdkCjRo3SxtHQpk2b+jK6cuVKlxxk/TgF06O3bNnSl63/N5MZ8tImY1TzCJ/VR45HGBvVIDNIBIC1wp326eQAp/3MP4pOEAdEGVLdPrTz5MmTnm1r1aqV5sP4UBSrPPSYSyy03YuwdaJw9IrSvGTClQV2QJSx0cbRCDqEGE63qxwzj2o0rr1793bVh3sYNGiQlgu6/xNOZ7zLzSUiHRuIqN7e//GzdxZRIVcGQuDRo0cOJUt0n0JUQkdJHDOSCKQwCnMQB4SIwxwj2D7woh49emg+3CuKVR7Rm2mfssdKtetKiR0XXyzYBc6CNW7cWOBcj6JJkyaJhg0bqkfPK23KijJlyrjqaK0scGYoGtWuXVtnwJD9Sp8+vdi+fbv8kWvx4sVlNi5t2rQhaq5fvy75kK6vWrWqKFmyZAgPCt6/fy8oOpNpzipVqogKFSqIdOnSSV5kApA1S506tcw8qJ+H3L59W/KDiRyI6NSpk+THP0uXLhWqPTiIaR8zQOavS5cukh8pzTVr1ojLly8LHBWAXqRay5UrJ+1ppX/gBundY8eOyeMMyNqFwwc/JqblsyhQoIDInDmzZ0vwfZEqRtoXeObNm1eebcL7RyO8Nw00maLGMQl8gyxZskQUw89+8FtDZByRksYVBNsbN26U2ac8efLI/pUzZ05PXchILl68WJ5Fw9kyZHbwHdu2bSuyZcvmKZOSQvQf1T+QyYqUBRs7dqyYNWuWNoN+juyTTf369ZOZYZQXKlRI0J6iZIlV3j4mgt9kkkOyzcvza+S4dTnGD8ZNisjl2nw8qA0o5SlpkEaVMteMkEP462f5Ze//mKGnsk8d1qGT1q42DB061OWhwbtp0yYXDx6wwWYuh8CHaAb7VV62KC0q261sR7t6bZib+z/kiBwze2bqGz169B/Zp8Amo5lVVDa98ME+CZ1Ml1iinTZRmtkZMmRICNZKJx01sEX0M00QDsJ3xauu+J40CB1cYdteIqGdilddEcHQD6BDyhHdRNtnRAQKe+a+CjJPiJTiQUEioAkTJrjewU8EhHYrilXeXKICWyRXvIgctqudXn3HS86rLPASzF5Kkdf00qvL0AHMj4sXoyhA10e6oXM1rheFLJZhdObG2bFjh4MOhjJ01q9fv0pVdKZGlmGJBwembHtlm+BQII/QddGiRSG20BGx3lV2cP3+/btDh8pkGI9QXtVBDwYUyvBHp8Q906S2w4Mc9tXwsW/duuVySH6zhJEwtOuSk5Ple/bs2VPiqPDBYLeJIjONiY0fNnKVLN5hypQpDpafWGKaEw6clE3nz5/XeuHwKRKTcnPmzNHl0Ik/04FQhCNtAnNghe+u+HDFM5Ik5lJk1apVtnnPZyw/KHp16cTeHuzEQkEckN0Hz50752nanhzVZB6rvLnfCjwxfrzIXqpRJOnF5qsssAOyzwDhg4cjzLbICpmdBLOvX7JnV3vD1qynpYyDDgpbderUkQ7J9tSmXRwnQEdW0ZiZGocOWlpKdvpZiW4/Bpz62EqXOQgwsCKRvf8DO/Ysh9lc4eVnQzuSPbsOWRKFD6K/SPhA1mwLsFZkzpTAxOu91b4YnYBXYvJ648YN7bggS4cyXfXmBIfvY5I606U2Xk1nDl4MmHv37mn88K4YlEEI/QKpbvQL9R2wz5LSySCIA6JfBmibsI3zODZholXtUlc6oCjZYpVH1k3pxBUTvRchKjX5IkW6XvJmWWAH9ODBA5fxrl27mvr0PbykHerDcyOC8EtmJ0Cq2yakABUQsKVmd0ROIDNct2d4lW6cPn265DUdK3iVo8FBLGUDM6JJDx8+1HXgUTImj3lvOzk824TZRNnzu8Fv6wj3jI4C3WoAmzOeVzbTnDxUmI0NSDPygeO3CcsrxWN2YnRc02F7OQcVwaKdiNJMQhYU5XCe9iysBqs9CNHelBCWnzj4B1zU9wAe4TJT4WwEcUDQYWJuOn2l39Sn2mVGibHIr1ixQr8rdNuTg2qD7YDof8JQVYGv/wMAAP//p8q+DgAADC1JREFU7VtnqBU9E45YsGP5oYgdu6go+sc/KoqIoFgRFcTesGFBsYsNe8HesHdUVOwdexd7w9577+6bJ3wTZnP2nHvKvZ9nlwx4dzeZJJMnk8nM5CicOGj48OFO8eLF9b9p06Y5v379Uj39+PHDOXnypFO7dm1dD95+/fo5X758iXq0V69eudp//fo1pO38+fM1T5s2bZwOHTo4FSpUcIi3bdu2un7lypWu9osXL1Z1V69eVeWtW7fWvFu3btW8t2/fdvr06eOA/9OnT7ocL+AjHDB2SjR27FjNP3ToUE924ER9mjJ7Noih0MQH3zTW8uXLXT39/PlT14Hn8ePHqh5yUxus8e/fv3U74MMxGTNmjK7Dy8aNG3XbGjVqaJ3hTL169dI8a9as0VV///5V5Z07d1Zlp0+f1nzoi9O8efOcAQMGOOfPn+fFcb8fPXrU4frRokUL58iRIw5kSokOHDig5YRupkT379/X/MD5+fPnusm7d++c6tWru+rB8/nzZ82TSPtNmza5+n7x4oXul798+/bNxYe9ES+JeBpCOfmCkELWr1/fJRiVr1+/PuZhdu/erfvCgntR9+7dNU/fvn2VQpMhfPr0qa6DHG/fvnV1gY3z/ft3VYYnyYpnOOBdHciPwYMH63aLFi0yq0O+OT779+8Pqf/z548yoCTLjRs3QngSKQA2hM/Lly+17BgP35yweUkOKD3ow4cPugx12FDQg0aNGjnVqlVz1U2cONFlnDA3fijh0DIJG5r3A+PPCetEBm/27Nl6vJEjR3K2NHsHJlw+02h7DRyrAUIfx48f13qA8ebOnesAL7wDcxhcWhs8gS2neNtv377d1S83frx/HPB8/EQOyrgMEISBIi9YsMAlCBcKSjtnzhzn2bNnXPao33F6Un8zZswIaQdlxWIQz5IlS1w83Dvq0aOHq878OHv2rO4HmyRa4opw8eLFiM1gAElWPN+/fx/Cf/nyZc0DZYvmhA3pJMqC1atX67HatWsX0orjN2jQIFXPjRLmULduXWV84H127drVGT9+vLNlyxbPucGL4PM/c+ZMyJj37t3TPFjbSPPHmNTfrl27QvpK7QLMvVOnTnpMHCbkPUcaKx4DhP7u3r2rPHqaI54tW7ZUY/K5Qw4viqc9vDo+3qNHj7y6dj5+/Oji27ZtmydfNIVxGyDqHCfSnTt3HAixbt06Z/Pmzcr1Na0y8Uf7bN68uZ7ksWPHQprBO+BgIewjguJy4+DlbRAvnjhhqK9Ro0bxqrDvpodFnkW4Bnv37tVjNGjQwJNtwoQJmietT3Uefnl5qDBKhAlccxA2OpXhSaGu52SMwlmzZrnaIlQ3iYdoCMXCEdpyORCupxXBcGLj03jQy0OHDkU0jlyWeA0Q9YH9BWPCwywYfpIH6ZBIFEv7W7du6X7RP769CJ4RjY8nDvB4KWEDFO/AKbXjsS4srkkIeTgInIef1DhJyTgAKJyyJvFcUbSnKQwujW96EE+ePHFOnDjhco25RwdDYxIUhbv35CHgFDp16lTUCm/26/WNsUh2PB88eOBiM/M/Dx8+VPUbNmzQ7SBrLASDSmOGC6n79++veeChgSAb8j2czp07p/li8Vh5H5Hegc+ePXscHBQkM9bYlCNSH1QXjwGCYaecG/VDT+gyyYTnlStXqEo/420Pw86jCtJB3fH/Xm7evOmSwcubN9uE+05aA0SLH07ReT7FjMV5khxhAYisu3lixHua8mQswhUieF/IiUA5kKwj4qcWlNIkeHCkWJgzNgEImxXlMAqpRTz/44UvN+CU/8HY3EVv2rRpiuIgIUqe8KRJk/T8xo0bF9IWuEEWwgBKDsI42BSckGQmvmg9Vt4+3Ds2Nzx4nquCJxZNqBWuz1gN0OHDh/XczCQ+xuDGF96YSYm2R/KesA0XWvExEJYmQklrgKBYAMJUPkyWZ+thqGizog6KzK349evXUeyQwaBvVSj/8AWN5TTlBhB9EFEYMXPmTCpSCXBaVDy9ToypU6fqhacNCm8N/FCK1CTuQnvNmctC+R+Mj1OZz4M8S1M2rAeS0OBFWA5CopLaeoWXa9eu1fVYP/RBcuJmkBP3WHfu3Mmr4nqHx7BixQrXDRP0BfgnSrEaINy4Ek5eus9vCb289UTbc3mHDRvmOX2uHzDYiVDSGiAe4nBFQDzMF+jatWuu+fMbLeSBQOBBG7j4JvFEeiynKfdo6IaNksg4yflPDviihsv/9OzZU88L3hAMKSU9L126ZIqd0Dc2HDfSXFaEHoQvnkgqc8I1ONV7uegwGuS1wXvCNwhhHLUzMeBrDR54kKCFCxeqNsCPyAxBzNs74ovmiYMA+T+OBcJjkjmaPlLi4cl+zO3169cRm/BQ1Twc8LMEwhAXK9ARkxJtj4iAH65872EsOhQgB/Scpz5MWaL5TloDhIlRKIPNDq+HfruDyQMkyk2YE6V22ABoRwrmxc+v8rH5oiV4KaQMuO2bMmWK+sZYppc1ffp0zTt58mTPIWizoU8YRTrJ8NuhtCDukQwcONBBkhzhKs2Jnki2c8IBQHhCAeHxwWDCiHD3HZ7TmzdveFOHbw54iDg96UaH5/zQP8mHdeaeFrAl2aAX8RB+ZsFDQoyHJDl+Z5MoIUyF4cDhRziRvPTEXMHjFcbu27dPzw86hfni5wgcO+i3+Zs0kjvR9ugHN9cUDgN/SkZj//DLISTjE6V06EAkKcnMv5AnrpBJWJeEUmmFVHaRNWtWVzl9yA2h2smTXRVly5ZNLF26VFSpUoVY9LNLly5CLprImzevkLdlIkeOHLou0gv6RluZbNZsJUqUEPL3GqJcuXK6DC8yHBEyT6TK5EYNqUeF11zlb2zEiBEjRPr06VXb1PwjQxwhFVysWrVKEE5m/4UKFRJSycxiIRVSSMMo5A2Rqw44V61aVUhvTlSuXNlVhw+ZDxLSAAtpYF11jRs3FtLdFzLhLDp27Cik4VL1WBOZ3xNlypTR/DIfIxo2bKi+0UaGY7oupRfpfQh5WIhly5YpVvQvPQnRrFmzsLqUUp9mvfz9mpCHmgAWmTNnNqvVt/TSFeb58+cX8obXxRMOI2Jq1aqVGDJkSNi+E21P48ioQWFLa0HleAI3acCFNLK8OK73pDZANCN5E6SUPnfu3KJUqVIie/bsVBX2KcMiAWWFIlSsWFFkyJDBkxd8MsQRlSpVEnny5PHkiVQoTyghb71EwYIFRcmSJT2NhXRrhbxBEUWKFBGFCxcO2x3OAmxC6XWIsmXLCsyXCAohfyhGn3E9YbTTpUvnaisT5Uo2KC4MjvQ81D8wtW/fXim7qwH7gKwyLyRkKCBgfLGhzP4Zu36VHo0AbjIEEqVLlxb58uXTdZDjwoULaoNiTXLlyqXr6EXm3NQ4XgcK8Xg9cQiNHj1aFCtWTHTr1k0ZsowZM3qx/vMyYCBDeoF1J3zr1asXUX+40Im2R18wlDLPpNZKekVqrXDAYD9lyZKFDxf3uy8MUNyzC1BDmaSNaAxSmioMMQyt/P2UkCGhkNe3Qua8RJ06dXRTeWslZGigv2VYJmTYoL/9/gJPT96uqcMmLbxKv+PzL+S3BuhfoP4Px6xZs6aARwmqVauWkL+n0tIgdNqxY4f6btKkiXKzdaV9sQikAQLWAKUBqMnapfwtkQrtSL7evXsLea2rPmF4YIBAyLnIHx2mWl5EdWr/WAQ8ELAGyAOUIBeRB4SQ7ODBgypnhaSsvJVS0y5fvryQP/QTBQoUCDIMdm5JgoA1QEmyEP8vMeSvnIX8j6P6pomPi9sbeEGZMmXixfbdIpBmCFgDlGbQJm/HuI6G9yN/ZKZuM4oWLaquVHPmzJm8QlvJAomANUCBXFY7KYuAPxCwBsgf62SltAgEEgFrgAK5rHZSFgF/IGANkD/WyUppEQgkAtYABXJZ7aQsAv5AwBogf6yTldIiEEgErAEK5LLaSVkE/IGANUD+WCcrpUUgkAhYAxTIZbWTsgj4AwFrgPyxTlZKi0AgEbAGKJDLaidlEfAHAtYA+WOdrJQWgUAiYA1QIJfVTsoi4A8ErAHyxzpZKS0CgUTAGqBALqudlEXAHwhYA+SPdbJSWgQCiYA1QIFcVjspi4A/ELAGyB/rZKW0CAQSAWuAArmsdlIWAX8gYA2QP9bJSmkRCCQC/wGTtRUB55RD/gAAAABJRU5ErkJggg==;" vertex="1" parent="1">
          <mxGeometry x="76.00999999999999" y="110" width="155.68" height="40" as="geometry" />
        </mxCell>
        <mxCell id="9ALV2XJM24fpJv_ytaoy-9" value="" style="shape=image;verticalLabelPosition=bottom;labelBackgroundColor=default;verticalAlign=top;aspect=fixed;imageAspect=0;image=data:image/png,iVBORw0KGgoAAAANSUhEUgAAAEAAAAA8CAYAAADWibxkAAAMQGlDQ1BJQ0MgUHJvZmlsZQAASImVVwdYU8kWnluSkJDQAghICb0JIlICSAmhBZDebYQkQCgxBoKKHVlUcC2oWMCGrooodpodsbMo9r5YUFDWxYJdeZMCuu4r35vvmzv//efMf86cO/fOHQDUT3DF4hxUA4BcUb4kJtifkZScwiB1AwLQAlTgBdy5vDwxKyoqHMAy2P69vLsBEFl71UGm9c/+/1o0+YI8HgBIFMRp/DxeLsQHAcCreGJJPgBEGW8+NV8sw7ACbQkMEOKFMpyhwFUynKbAe+U2cTFsiFsBUKFyuZIMANQuQ55RwMuAGmp9EDuJ+EIRAOoMiH1ycyfzIU6F2AbaiCGW6TPTftDJ+Jtm2pAml5sxhBVzkReVAGGeOIc7/f9Mx/8uuTnSQR9WsFIzJSExsjnDvN3Knhwmw1SIe0VpEZEQa0H8QciX20OMUjKlIfEKe9SQl8eGOQO6EDvxuQFhEBtCHCTKiQhX8mnpwiAOxHCFoNOE+Zw4iPUgXijIC4xV2mySTI5R+kLr0yVslpI/x5XI/cp8PZBmx7OU+q8zBRylPqZWmBmXCDEFYosCYUIExGoQO+Zlx4YpbcYUZrIjBm0k0hhZ/BYQxwhEwf4KfawgXRIUo7Qvzc0bnC+2KVPIiVDi/fmZcSGK/GCtPK48fjgX7LJAxIof1BHkJYUPzoUvCAhUzB3rFojiY5U6H8T5/jGKsThFnBOltMfNBDnBMt4MYpe8gljlWDwhHy5IhT6eLs6PilPEiRdmcUOjFPHgy0A4YIMAwABSWNPAZJAFhO29Db3wTtETBLhAAjKAADgomcERifIeEbzGgkLwJ0QCkDc0zl/eKwAFkP86xCquDiBd3lsgH5ENnkKcC8JADryXykeJhrwlgCeQEf7DOxdWHow3B1ZZ/7/nB9nvDAsy4UpGOuiRoT5oSQwkBhBDiEFEW9wA98G98HB49YPVGWfiHoPz+G5PeEroIDwiXCd0Em5PEhZJfopyLOiE+kHKXKT9mAvcCmq64v64N1SHyrgubgAccBfoh4X7Qs+ukGUr45ZlhfGT9t9m8MPTUNqRncgoeRjZj2zz80g1OzXXIRVZrn/MjyLWtKF8s4d6fvbP/iH7fNiG/WyJLcQOYGexk9h57AjWABjYcawRa8OOyvDQ6noiX12D3mLk8WRDHeE//A0+WVkm85xqnXqcvij68gXTZN9owJ4sni4RZmTmM1hwRxAwOCKe4wiGs5OzCwCy/UXx+XoTLd83EN2279z8PwDwPj4wMHD4Oxd6HIB97vD1b/rO2TDh1qEKwLkmnlRSoOBw2YUAvxLq8E3TB8bAHNjA+TgDN7iP+YFAEAoiQRxIBhNh9JlwnUvAVDATzAMloAwsA6vAOrARbAE7wG6wHzSAI+AkOAMugsvgOrgLV08XeAH6wDvwGUEQEkJD6Ig+YoJYIvaIM8JEfJBAJByJQZKRVCQDESFSZCYyHylDypF1yGakBtmHNCEnkfNIB3IbeYj0IK+RTyiGUlFt1Ai1QkeiTJSFhqFx6AQ0A52CFqLF6BJ0DVqN7kLr0ZPoRfQ62om+QPsxgKliupgp5oAxMTYWiaVg6ZgEm42VYhVYNVaHNcPnfBXrxHqxjzgRp+MM3AGu4BA8HufhU/DZ+GJ8Hb4Dr8db8av4Q7wP/0agEQwJ9gRPAoeQRMggTCWUECoI2wiHCKfhu9RFeEckEnWJ1kR3+C4mE7OIM4iLieuJe4gniB3Ex8R+EomkT7IneZMiSVxSPqmEtJa0i3ScdIXURfqgoqpiouKsEqSSoiJSKVKpUNmpckzlisozlc9kDbIl2ZMcSeaTp5OXkreSm8mXyF3kzxRNijXFmxJHyaLMo6yh1FFOU+5R3qiqqpqpeqhGqwpV56quUd2rek71oepHqhbVjsqmjqdKqUuo26knqLepb2g0mhXNj5ZCy6ctodXQTtEe0D6o0dUc1ThqfLU5apVq9WpX1F6qk9Ut1VnqE9UL1SvUD6hfUu/VIGtYabA1uBqzNSo1mjRuavRr0jVHaUZq5mou1typeV6zW4ukZaUVqMXXKtbaonVK6zEdo5vT2XQefT59K/00vUubqG2tzdHO0i7T3q3drt2no6XjopOgM02nUueoTqcupmuly9HN0V2qu1/3hu6nYUbDWMMEwxYNqxt2Zdh7veF6fnoCvVK9PXrX9T7pM/QD9bP1l+s36N83wA3sDKINphpsMDht0Dtce7jXcN7w0uH7h98xRA3tDGMMZxhuMWwz7DcyNgo2EhutNTpl1Gusa+xnnGW80viYcY8J3cTHRGiy0uS4yXOGDoPFyGGsYbQy+kwNTUNMpaabTdtNP5tZm8WbFZntMbtvTjFnmqebrzRvMe+zMLEYazHTotbijiXZkmmZabna8qzleytrq0SrBVYNVt3WetYc60LrWut7NjQbX5spNtU212yJtkzbbNv1tpftUDtXu0y7SrtL9qi9m73Qfr19xwjCCI8RohHVI246UB1YDgUOtQ4PHXUdwx2LHBscX460GJkycvnIsyO/Obk65Thtdbo7SmtU6KiiUc2jXjvbOfOcK52vjaaNDho9Z3Tj6Fcu9i4Clw0ut1zprmNdF7i2uH51c3eTuNW59bhbuKe6V7nfZGozo5iLmec8CB7+HnM8jnh89HTzzPfc7/mXl4NXttdOr+4x1mMEY7aOeext5s313uzd6cPwSfXZ5NPpa+rL9a32feRn7sf32+b3jGXLymLtYr30d/KX+B/yf8/2ZM9inwjAAoIDSgPaA7UC4wPXBT4IMgvKCKoN6gt2DZ4RfCKEEBIWsjzkJseIw+PUcPpC3UNnhbaGUcNiw9aFPQq3C5eEN49Fx4aOXTH2XoRlhCiiIRJEciJXRN6Pso6aEnU4mhgdFV0Z/TRmVMzMmLOx9NhJsTtj38X5xy2NuxtvEy+Nb0lQTxifUJPwPjEgsTyxM2lk0qyki8kGycLkxhRSSkLKtpT+cYHjVo3rGu86vmT8jQnWE6ZNOD/RYGLOxKOT1CdxJx1IJaQmpu5M/cKN5FZz+9M4aVVpfTw2bzXvBd+Pv5LfI/AWlAuepXunl6d3Z3hnrMjoyfTNrMjsFbKF64SvskKyNma9z47M3p49kJOYsydXJTc1t0mkJcoWtU42njxtcofYXlwi7pziOWXVlD5JmGRbHpI3Ia8xXxv+yLdJbaS/SB8W+BRUFnyYmjD1wDTNaaJpbdPtpi+a/qwwqPC3GfgM3oyWmaYz5818OIs1a/NsZHba7JY55nOK53TNDZ67Yx5lXva834ucisqL3s5PnN9cbFQ8t/jxL8G/1JaolUhKbi7wWrBxIb5QuLB90ehFaxd9K+WXXihzKqso+7KYt/jCr6N+XfPrwJL0Je1L3ZZuWEZcJlp2Y7nv8h3lmuWF5Y9XjF1Rv5KxsnTl21WTVp2vcKnYuJqyWrq6c034msa1FmuXrf2yLnPd9Ur/yj1VhlWLqt6v56+/ssFvQ91Go41lGz9tEm66tTl4c321VXXFFuKWgi1PtyZsPfsb87eabQbbyrZ93S7a3rkjZkdrjXtNzU7DnUtr0Vppbc+u8bsu7w7Y3VjnULd5j+6esr1gr3Tv832p+27sD9vfcoB5oO6g5cGqQ/RDpfVI/fT6vobMhs7G5MaOptCmlmav5kOHHQ9vP2J6pPKoztGlxyjHio8NHC883n9CfKL3ZMbJxy2TWu6eSjp1rTW6tf102OlzZ4LOnDrLOnv8nPe5I+c9zzddYF5ouOh2sb7Nte3Q766/H2p3a6+/5H6p8bLH5eaOMR3HrvheOXk14OqZa5xrF69HXO+4EX/j1s3xNztv8W913865/epOwZ3Pd+feI9wrva9xv+KB4YPqP2z/2NPp1nn0YcDDtkexj+4+5j1+8STvyZeu4qe0pxXPTJ7VdDt3H+kJ6rn8fNzzrhfiF597S/7U/LPqpc3Lg3/5/dXWl9TX9UryauD14jf6b7a/dXnb0h/V/+Bd7rvP70s/6H/Y8ZH58eynxE/PPk/9Qvqy5qvt1+ZvYd/uDeQODIi5Eq78VwCDFU1PB+D1dgBoyQDQ4fmMMk5x/pMXRHFmlSPwn7DijCgvbgDUwf/36F74d3MTgL1b4fEL6quPByCKBkCcB0BHjx6qg2c1+blSVojwHLAp6mtabhr4N0Vx5vwh7p9bIFN1AT+3/wKkxnyhCYbjfQAAAIplWElmTU0AKgAAAAgABAEaAAUAAAABAAAAPgEbAAUAAAABAAAARgEoAAMAAAABAAIAAIdpAAQAAAABAAAATgAAAAAAAACQAAAAAQAAAJAAAAABAAOShgAHAAAAEgAAAHigAgAEAAAAAQAAAECgAwAEAAAAAQAAADwAAAAAQVNDSUkAAABTY3JlZW5zaG90OoSnvgAAAAlwSFlzAAAWJQAAFiUBSVIk8AAAAdRpVFh0WE1MOmNvbS5hZG9iZS54bXAAAAAAADx4OnhtcG1ldGEgeG1sbnM6eD0iYWRvYmU6bnM6bWV0YS8iIHg6eG1wdGs9IlhNUCBDb3JlIDYuMC4wIj4KICAgPHJkZjpSREYgeG1sbnM6cmRmPSJodHRwOi8vd3d3LnczLm9yZy8xOTk5LzAyLzIyLXJkZi1zeW50YXgtbnMjIj4KICAgICAgPHJkZjpEZXNjcmlwdGlvbiByZGY6YWJvdXQ9IiIKICAgICAgICAgICAgeG1sbnM6ZXhpZj0iaHR0cDovL25zLmFkb2JlLmNvbS9leGlmLzEuMC8iPgogICAgICAgICA8ZXhpZjpQaXhlbFlEaW1lbnNpb24+NjA8L2V4aWY6UGl4ZWxZRGltZW5zaW9uPgogICAgICAgICA8ZXhpZjpQaXhlbFhEaW1lbnNpb24+NjQ8L2V4aWY6UGl4ZWxYRGltZW5zaW9uPgogICAgICAgICA8ZXhpZjpVc2VyQ29tbWVudD5TY3JlZW5zaG90PC9leGlmOlVzZXJDb21tZW50PgogICAgICA8L3JkZjpEZXNjcmlwdGlvbj4KICAgPC9yZGY6UkRGPgo8L3g6eG1wbWV0YT4KBHQvPAAAABxpRE9UAAAAAgAAAAAAAAAeAAAAKAAAAB4AAAAeAAACSnKVrPIAAAIWSURBVGgF7Fc/qIFRFD8mSUaTQZksFqVksclCym6WVf4sikUmm0JWixJWSjYMkkUpEwsTBqHovHu+8vVueO97Hs8r99bX1z3fveee87vn/H59KmQD3nioBACiAkQLCA54Yw4EQYJCBYQKCBUQKiBU4I0REDIoZFDIoJBBIYNvLALiZ0ixDDYaDdjv9+D1ekGj0by8aNbrNVSrVTAYDOB2u++Ph2Twu7HZbNBkMkmPzWbDSqWCx+Pxu21P+U7nlstltFgsckyHw+HusxRVAAMArFYrh7LZbIZEIgF2u52zP3PS7XYhmUzCdDrljhmPx6BWqzmb0sndAJwPcLlcEI/HwWg0nk0Pf8/nc0in09BsNq/6/lMASqWSdAOZTIYLJhgMAj06nY6z/2ay3W6hUChALpeT3Wi1WohGo6DX6yEUCkn23wAASpqHEY7cb6wMpS3L5RJjsZhsJ46gvnwEP5xOJ6zVakh8c+YeeqdSKVytVtL57XZb/sbIWUkaV9f8GIBer8c5Go1G6Pf75WAoUI/Hg4PBgFundDIcDtHn83H+AoEATiYTzkWn05HXvBQAiopurF6vX9xYOBzGxWLBBX5rQusikYicFAHpdDqx1Wpd3fIyAPr9/tWAyMh6FrPZLJcEJVIsFvGWVO12O8zn8xd7WO/jVzf7LwE4IzObzZARIpcU3SYF/XkwVkeHw8GtoypQUjWPAuADAAD//4H25pkAAAK/SURBVO1XPWgqQRCeYJEiWEkgdVpJY7QJQjrLkMYqZRBstFFBq0gQgpUSSBTSBSsJghYmQhBtNEFQSKHYRBQFFRQNxB/QzHN8eNzlfO+dGvEe3ILc7OzM7My3OzMroIDR6XRwf39/+nt9fRWg8VsklUqhTqdjdMmGwWDAp6cnPDs74/BPT08xl8sJtp1IJBj9wWAgWO+7IHxnzJsvCwDZGo1GGAgE8ODggHF4BiZ9NRoNhkIhHI/H87b+I++/AWAWAQXJDnxGR6PRmchC30gkwtgT9Q0olUp4fn7OODsLnP01Go1YqVQWAkD0N+Dj4wPdbjcncEqDYDCI/X4f7+/veWnh8Xjw8/NTEBCiBYBy/uHhYZrb7FN2uVxItYQ92u02Op1ODkhUE+h6f319sUV5tCgByGazSNWcHThV+2KxyAuAzSgUCryuoNfr8e3tjS3GoTcGwMvLC8cRmtTrdbRYLJzAj46O8PHxkSf7N0YsFkPSYwNot9ux2Wzy1EQBQK/Xw5ubG47D5Pz19TXS2jKD6oPP5+PZvLu7w+FwyJjcGADpdHqan3S630/LbDZjtVplnFyFmHerjo+P8fn5eWo2Ho8zIK3SBrfIGvxjdLtdUKlUUymr1QrJZBIymQyjpVQq4eLiAg4PDxneTxGT1yFcXl7CpB4wJrVaLajVavB6vVNePp+H7e1tZn0RYmEA2MYVCgU4HA44OTkBmUzGXvpRetIRIBwOw9XVFbRaLZ7tjQBgMplg8q6HnZ0dnkPrYkzeCOD3++H29pazxSoACPovQAVtVpltNhvWarVV0ntl3XK5jPR6JJ/ocUVvj2WHoBQguBuNBoEFe3t7HPQ3OXl/fwe5XA67u7tLuyEYgKV3ELmiBADljsgPaa3uSTdAugFSCkg1QCqCay2zIjcudQGpC0hdQOoCUhcQeaFeq3u/APpH3gKXiCMqAAAAAElFTkSuQmCC;" vertex="1" parent="1">
          <mxGeometry x="207.32999999999998" y="270" width="42.67" height="40" as="geometry" />
        </mxCell>
        <mxCell id="9ALV2XJM24fpJv_ytaoy-12" value="" style="endArrow=none;html=1;rounded=0;entryX=0.5;entryY=0;entryDx=0;entryDy=0;exitX=1;exitY=1;exitDx=0;exitDy=0;" edge="1" parent="1" source="9ALV2XJM24fpJv_ytaoy-9" target="9ALV2XJM24fpJv_ytaoy-3">
          <mxGeometry width="50" height="50" relative="1" as="geometry">
            <mxPoint x="130" y="360" as="sourcePoint" />
            <mxPoint x="180" y="310" as="targetPoint" />
          </mxGeometry>
        </mxCell>
        <mxCell id="9ALV2XJM24fpJv_ytaoy-13" value="" style="endArrow=none;html=1;rounded=0;entryX=0;entryY=1;entryDx=0;entryDy=0;exitX=0.5;exitY=0;exitDx=0;exitDy=0;" edge="1" parent="1" source="9ALV2XJM24fpJv_ytaoy-5" target="9ALV2XJM24fpJv_ytaoy-6">
          <mxGeometry width="50" height="50" relative="1" as="geometry">
            <mxPoint x="130" y="360" as="sourcePoint" />
            <mxPoint x="180" y="310" as="targetPoint" />
          </mxGeometry>
        </mxCell>
        <mxCell id="9ALV2XJM24fpJv_ytaoy-15" value="" style="endArrow=none;html=1;rounded=0;entryX=1;entryY=1;entryDx=0;entryDy=0;exitX=0.5;exitY=0;exitDx=0;exitDy=0;" edge="1" parent="1" source="9ALV2XJM24fpJv_ytaoy-9" target="9ALV2XJM24fpJv_ytaoy-6">
          <mxGeometry width="50" height="50" relative="1" as="geometry">
            <mxPoint x="130" y="360" as="sourcePoint" />
            <mxPoint x="180" y="310" as="targetPoint" />
          </mxGeometry>
        </mxCell>
        <mxCell id="9ALV2XJM24fpJv_ytaoy-16" value="" style="endArrow=none;html=1;rounded=0;entryX=0.5;entryY=1;entryDx=0;entryDy=0;exitX=0.5;exitY=0;exitDx=0;exitDy=0;" edge="1" parent="1" source="9ALV2XJM24fpJv_ytaoy-6" target="9ALV2XJM24fpJv_ytaoy-7">
          <mxGeometry width="50" height="50" relative="1" as="geometry">
            <mxPoint x="130" y="360" as="sourcePoint" />
            <mxPoint x="180" y="310" as="targetPoint" />
          </mxGeometry>
        </mxCell>
        <mxCell id="9ALV2XJM24fpJv_ytaoy-17" value="" style="endArrow=none;html=1;rounded=0;entryX=0.5;entryY=1;entryDx=0;entryDy=0;exitX=0.5;exitY=0;exitDx=0;exitDy=0;" edge="1" parent="1" source="9ALV2XJM24fpJv_ytaoy-7" target="9ALV2XJM24fpJv_ytaoy-2">
          <mxGeometry width="50" height="50" relative="1" as="geometry">
            <mxPoint x="130" y="360" as="sourcePoint" />
            <mxPoint x="180" y="310" as="targetPoint" />
          </mxGeometry>
        </mxCell>
      </root>
    </mxGraphModel>
  </diagram>
</mxfile>
